<svg xmlns="http://www.w3.org/2000/svg" xmlns:xlink="http://www.w3.org/1999/xlink" width="500" zoomAndPan="magnify" viewBox="0 0 375 374.999991" height="500" preserveAspectRatio="xMidYMid meet" version="1.0"><defs><g/><clipPath id="id1"><path d="M 118.210938 188 L 326.710938 188 L 326.710938 213.578125 L 118.210938 213.578125 Z M 118.210938 188 " clip-rule="nonzero"/></clipPath></defs><g fill="#000000" fill-opacity="1"><g transform="translate(119.52231, 177.616048)"><g><path d="M 7.140625 -2.78125 L 2.65625 -2.78125 L 1.65625 0 L 0.203125 0 L 4.28125 -10.671875 L 5.515625 -10.671875 L 9.59375 0 L 8.15625 0 Z M 3.09375 -3.9375 L 6.71875 -3.9375 L 4.890625 -8.9375 Z M 3.09375 -3.9375 "/></g></g></g><g fill="#000000" fill-opacity="1"><g transform="translate(130.818741, 177.616048)"><g><path d="M 8.75 -10.671875 L 8.75 -3.421875 C 8.75 -2.410156 8.429688 -1.582031 7.796875 -0.9375 C 7.171875 -0.300781 6.320312 0.0507812 5.25 0.125 L 4.875 0.140625 C 3.707031 0.140625 2.773438 -0.171875 2.078125 -0.796875 C 1.390625 -1.429688 1.039062 -2.300781 1.03125 -3.40625 L 1.03125 -10.671875 L 2.421875 -10.671875 L 2.421875 -3.453125 C 2.421875 -2.671875 2.628906 -2.066406 3.046875 -1.640625 C 3.472656 -1.210938 4.082031 -1 4.875 -1 C 5.675781 -1 6.285156 -1.210938 6.703125 -1.640625 C 7.128906 -2.066406 7.34375 -2.664062 7.34375 -3.4375 L 7.34375 -10.671875 Z M 8.75 -10.671875 "/></g></g></g><g fill="#000000" fill-opacity="1"><g transform="translate(142.05652, 177.616048)"><g><path d="M 5.15625 -4.3125 L 2.640625 -4.3125 L 2.640625 0 L 1.234375 0 L 1.234375 -10.671875 L 4.765625 -10.671875 C 5.960938 -10.671875 6.882812 -10.394531 7.53125 -9.84375 C 8.1875 -9.300781 8.515625 -8.507812 8.515625 -7.46875 C 8.515625 -6.800781 8.332031 -6.21875 7.96875 -5.71875 C 7.613281 -5.226562 7.113281 -4.863281 6.46875 -4.625 L 8.984375 -0.09375 L 8.984375 0 L 7.46875 0 Z M 2.640625 -5.46875 L 4.8125 -5.46875 C 5.507812 -5.46875 6.0625 -5.644531 6.46875 -6 C 6.882812 -6.363281 7.09375 -6.851562 7.09375 -7.46875 C 7.09375 -8.125 6.894531 -8.628906 6.5 -8.984375 C 6.113281 -9.335938 5.546875 -9.515625 4.796875 -9.515625 L 2.640625 -9.515625 Z M 2.640625 -5.46875 "/></g></g></g><g fill="#000000" fill-opacity="1"><g transform="translate(152.803086, 177.616048)"><g><path d="M 7.140625 -2.78125 L 2.65625 -2.78125 L 1.65625 0 L 0.203125 0 L 4.28125 -10.671875 L 5.515625 -10.671875 L 9.59375 0 L 8.15625 0 Z M 3.09375 -3.9375 L 6.71875 -3.9375 L 4.890625 -8.9375 Z M 3.09375 -3.9375 "/></g></g></g><g fill="#000000" fill-opacity="1"><g transform="translate(164.099516, 177.616048)"><g><path d="M 4.765625 -1.875 L 7.828125 -10.671875 L 9.359375 -10.671875 L 5.40625 0 L 4.15625 0 L 0.203125 -10.671875 L 1.734375 -10.671875 Z M 4.765625 -1.875 "/></g></g></g><g fill="#000000" fill-opacity="1"><g transform="translate(175.154005, 177.616048)"><g><path d="M 1.0625 -0.71875 C 1.0625 -0.945312 1.128906 -1.140625 1.265625 -1.296875 C 1.398438 -1.453125 1.609375 -1.53125 1.890625 -1.53125 C 2.171875 -1.53125 2.378906 -1.453125 2.515625 -1.296875 C 2.660156 -1.140625 2.734375 -0.945312 2.734375 -0.71875 C 2.734375 -0.488281 2.660156 -0.296875 2.515625 -0.140625 C 2.378906 0.00390625 2.171875 0.078125 1.890625 0.078125 C 1.609375 0.078125 1.398438 0.00390625 1.265625 -0.140625 C 1.128906 -0.296875 1.0625 -0.488281 1.0625 -0.71875 Z M 1.0625 -0.71875 "/></g></g></g><g fill="#000000" fill-opacity="1"><g transform="translate(180.607204, 177.616048)"><g><path d="M 3.953125 -4.96875 L 2.640625 -3.609375 L 2.640625 0 L 1.234375 0 L 1.234375 -10.671875 L 2.640625 -10.671875 L 2.640625 -5.390625 L 7.390625 -10.671875 L 9.09375 -10.671875 L 4.890625 -5.953125 L 9.421875 0 L 7.734375 0 Z M 3.953125 -4.96875 "/></g></g></g><g fill="#000000" fill-opacity="1"><g transform="translate(191.522398, 177.616048)"><g><path d="M 6.75 1.109375 L 0.03125 1.109375 L 0.03125 0 L 6.75 0 Z M 6.75 1.109375 "/></g></g></g><g clip-path="url(#id1)"><path fill="#000000" d="M 326.257812 193.917969 C 325.933594 198.109375 323.710938 201.804688 320.328125 204.308594 C 316.871094 206.859375 312.488281 207.59375 308.339844 206.515625 C 299.398438 204.191406 294.335938 195.421875 285.847656 192.253906 C 281.8125 190.746094 277.503906 190.710938 274.375 194.007812 C 272.890625 195.570312 271.824219 197.464844 270.566406 199.199219 C 269.335938 200.894531 267.9375 202.429688 266.28125 203.730469 C 259.757812 208.851562 250.433594 210.53125 243.101562 206.046875 C 236.117188 201.78125 232.167969 192.972656 223.582031 191.429688 C 220.597656 190.894531 217.0625 191.449219 215.476562 194.289062 C 214.371094 196.265625 214.320312 198.683594 213.457031 200.769531 C 212.660156 202.6875 211.492188 204.421875 210.011719 205.894531 C 203.261719 212.597656 192.710938 212.316406 184.972656 207.480469 C 180.660156 204.789062 177.671875 200.667969 173.691406 197.601562 C 170.316406 195 165.742188 193.378906 161.851562 195.851562 C 158.597656 197.914062 156.632812 201.605469 154.203125 204.472656 C 151.394531 207.792969 147.632812 210.175781 143.367188 211.210938 C 134.785156 213.289062 125.890625 209.550781 121.320312 202.089844 C 120.226562 200.304688 119.421875 198.335938 118.953125 196.304688 C 118.492188 194.316406 121.582031 193.46875 122.042969 195.460938 C 123.875 203.386719 131.324219 209.125 139.574219 208.605469 C 143.6875 208.34375 147.71875 206.585938 150.617188 203.679688 C 153.308594 200.980469 155.148438 197.566406 157.917969 194.9375 C 161.042969 191.96875 165.105469 190.714844 169.347656 191.859375 C 174.117188 193.140625 177.597656 196.679688 180.980469 200.03125 C 184.347656 203.367188 187.992188 206.1875 192.695312 207.375 C 196.78125 208.40625 201.121094 208.027344 204.789062 205.902344 C 206.457031 204.9375 207.984375 203.648438 209.101562 202.082031 C 210.320312 200.375 210.882812 198.554688 211.359375 196.542969 C 211.859375 194.449219 212.546875 192.40625 214.105469 190.839844 C 215.269531 189.667969 216.800781 188.859375 218.40625 188.457031 C 221.957031 187.558594 225.796875 188.351562 229.039062 189.902344 C 232.773438 191.683594 235.582031 194.90625 238.394531 197.820312 C 241.214844 200.738281 244.246094 203.734375 248.265625 204.910156 C 251.90625 205.980469 255.820312 205.558594 259.316406 204.167969 C 262.984375 202.707031 266.03125 200.152344 268.261719 196.945312 C 270.765625 193.34375 273.171875 189.519531 277.757812 188.394531 C 282.019531 187.355469 286.460938 188.753906 290.191406 190.789062 C 294.078125 192.90625 297.238281 195.988281 300.679688 198.710938 C 303.859375 201.230469 307.589844 203.703125 311.796875 203.847656 C 315.554688 203.976562 319.179688 201.957031 321.246094 198.878906 C 322.246094 197.390625 322.914062 195.707031 323.050781 193.917969 C 323.207031 191.894531 326.414062 191.878906 326.257812 193.917969 Z M 325.1875 209.675781 C 325.925781 209.167969 326.199219 208.316406 325.765625 207.503906 C 325.382812 206.789062 324.261719 206.460938 323.570312 206.9375 C 322.902344 207.398438 322.210938 207.828125 321.496094 208.214844 C 321.183594 208.386719 320.867188 208.546875 320.546875 208.703125 C 320.363281 208.792969 320.179688 208.878906 319.992188 208.960938 C 319.941406 208.984375 319.394531 209.21875 319.675781 209.101562 C 318.214844 209.703125 316.691406 210.140625 315.136719 210.421875 C 314.253906 210.582031 313.839844 211.59375 314.015625 212.371094 C 314.222656 213.257812 315.167969 213.628906 315.988281 213.480469 C 319.277344 212.882812 322.449219 211.566406 325.1875 209.675781 Z M 180.710938 196.195312 C 182.777344 196.195312 182.773438 193.023438 180.710938 193.023438 C 178.644531 193.023438 178.644531 196.195312 180.710938 196.195312 Z M 180.710938 196.195312 " fill-opacity="1" fill-rule="nonzero"/></g><g fill="#000000" fill-opacity="1"><g transform="translate(47.544321, 230.086033)"><g><path d="M 40.832031 2.90625 C 47.714844 0.230469 53.066406 -11.699219 56.585938 -22.40625 C 57.121094 -24.085938 58.265625 -25.539062 59.796875 -26.378906 C 64.382812 -28.980469 68.894531 -31.351562 72.792969 -33.261719 C 73.789062 -33.722656 74.246094 -34.945312 73.710938 -35.9375 C 73.253906 -36.933594 72.03125 -37.390625 71.035156 -36.855469 C 70.042969 -36.398438 66.984375 -34.945312 63.007812 -32.804688 C 62.320312 -32.421875 61.476562 -32.496094 60.867188 -32.957031 C 60.253906 -33.414062 60.023438 -34.179688 60.179688 -34.945312 C 60.867188 -37.621094 61.25 -39.53125 61.402344 -40.296875 C 61.554688 -41.0625 61.25 -41.902344 60.484375 -42.363281 C 59.796875 -42.820312 58.878906 -42.820312 58.191406 -42.285156 C 57.960938 -42.054688 29.363281 -20.644531 13.304688 -29.667969 C 8.027344 -32.652344 7.492188 -38.769531 7.953125 -43.355469 C 9.480469 -59.261719 25.15625 -80.898438 45.878906 -87.628906 C 54.902344 -90.609375 61.097656 -89.003906 63.238281 -83.195312 C 66.90625 -73.710938 58.878906 -54.0625 38.078125 -45.039062 C 37.007812 -44.578125 36.550781 -43.355469 37.007812 -42.363281 C 37.46875 -41.367188 38.613281 -40.910156 39.683594 -41.367188 C 61.171875 -50.695312 71.878906 -71.953125 67.058594 -84.648438 C 64 -92.523438 55.667969 -95.046875 44.65625 -91.453125 C 22.40625 -84.1875 5.660156 -60.941406 3.898438 -43.738281 C 3.136719 -35.554688 5.734375 -29.363281 11.316406 -26.226562 C 24.164062 -18.964844 42.667969 -27.757812 52.992188 -33.949219 C 53.527344 -34.332031 54.214844 -34.257812 54.75 -33.875 C 55.285156 -33.414062 55.515625 -32.726562 55.285156 -32.117188 L 54.367188 -28.828125 C 54.136719 -28.140625 53.679688 -27.527344 53.066406 -27.144531 C 41.902344 -20.417969 29.746094 -11.546875 29.210938 -4.589844 C 28.980469 -1.988281 30.28125 0.457031 32.421875 1.757812 C 34.027344 2.90625 35.863281 3.515625 37.773438 3.515625 C 38.769531 3.515625 39.839844 3.289062 40.832031 2.90625 Z M 50.007812 -16.285156 C 47.027344 -8.792969 43.355469 -2.371094 39.378906 -0.765625 C 37.773438 -0.230469 36.015625 -0.457031 34.792969 -1.53125 C 33.261719 -2.601562 33.109375 -3.515625 33.1875 -4.207031 C 33.492188 -7.953125 39.457031 -13.226562 47.179688 -18.582031 C 47.867188 -19.039062 48.785156 -19.039062 49.472656 -18.503906 C 50.160156 -17.96875 50.390625 -17.050781 50.007812 -16.285156 Z M 50.007812 -16.285156 "/></g></g></g></svg>