<svg xmlns="http://www.w3.org/2000/svg" xmlns:xlink="http://www.w3.org/1999/xlink" width="100" zoomAndPan="magnify" viewBox="0 0 75 37.5" height="50" preserveAspectRatio="xMidYMid meet" version="1.0"><defs><clipPath id="4a613d9793"><path d="M 4.195312 8.886719 L 70.804688 8.886719 L 70.804688 28.128906 L 4.195312 28.128906 Z M 4.195312 8.886719 " clip-rule="nonzero"/></clipPath></defs><g clip-path="url(#4a613d9793)"><path fill="#222222" d="M 4.734375 23.890625 L 4.734375 16.496094 L 13.960938 16.496094 L 13.960938 16.0625 L 4.734375 16.0625 L 4.734375 9.320312 L 14.542969 9.320312 L 14.542969 8.886719 L 4.300781 8.886719 L 4.300781 24.324219 L 14.628906 24.324219 L 14.628906 23.890625 Z M 22.949219 13.210938 L 19.125 18.246094 L 15.386719 13.210938 L 14.824219 13.210938 L 18.863281 18.570312 L 14.433594 24.324219 L 14.953125 24.324219 L 19.125 18.894531 L 23.316406 24.324219 L 23.855469 24.324219 L 19.40625 18.570312 L 23.46875 13.210938 Z M 25.152344 28.128906 L 25.152344 21.210938 L 25.195312 21.210938 C 25.453125 22.21875 25.964844 23.027344 26.730469 23.640625 C 27.492188 24.253906 28.464844 24.558594 29.648438 24.558594 C 30.410156 24.558594 31.085938 24.40625 31.675781 24.09375 C 32.269531 23.785156 32.761719 23.363281 33.15625 22.832031 C 33.554688 22.296875 33.855469 21.679688 34.066406 20.972656 C 34.273438 20.265625 34.378906 19.523438 34.378906 18.746094 C 34.378906 17.910156 34.269531 17.136719 34.054688 16.433594 C 33.839844 15.726562 33.523438 15.113281 33.113281 14.59375 C 32.703125 14.074219 32.207031 13.671875 31.625 13.382812 C 31.039062 13.09375 30.378906 12.949219 29.648438 12.949219 C 29.082031 12.949219 28.5625 13.035156 28.082031 13.199219 C 27.597656 13.367188 27.167969 13.597656 26.792969 13.902344 C 26.421875 14.203125 26.097656 14.5625 25.824219 14.972656 C 25.546875 15.382812 25.339844 15.832031 25.195312 16.324219 L 25.152344 16.324219 L 25.152344 13.210938 L 24.71875 13.210938 L 24.71875 28.128906 Z M 29.648438 24.148438 C 28.292969 24.148438 27.203125 23.6875 26.382812 22.753906 C 25.5625 21.824219 25.152344 20.488281 25.152344 18.746094 C 25.152344 18.023438 25.253906 17.339844 25.453125 16.691406 C 25.65625 16.042969 25.949219 15.472656 26.328125 14.984375 C 26.710938 14.492188 27.183594 14.105469 27.746094 13.816406 C 28.308594 13.527344 28.941406 13.382812 29.648438 13.382812 C 30.367188 13.382812 30.996094 13.527344 31.535156 13.816406 C 32.078125 14.105469 32.523438 14.496094 32.875 14.992188 C 33.230469 15.492188 33.496094 16.0625 33.675781 16.703125 C 33.855469 17.34375 33.945312 18.023438 33.945312 18.746094 C 33.945312 19.394531 33.863281 20.039062 33.699219 20.679688 C 33.53125 21.320312 33.277344 21.898438 32.929688 22.410156 C 32.585938 22.921875 32.140625 23.339844 31.601562 23.664062 C 31.0625 23.988281 30.410156 24.148438 29.648438 24.148438 Z M 36.753906 24.324219 L 36.753906 18.03125 C 36.753906 17.425781 36.839844 16.835938 37.015625 16.257812 C 37.1875 15.683594 37.453125 15.175781 37.8125 14.734375 C 38.171875 14.296875 38.632812 13.949219 39.1875 13.695312 C 39.738281 13.445312 40.398438 13.339844 41.164062 13.382812 L 41.164062 12.949219 C 40.5 12.9375 39.921875 13.007812 39.421875 13.167969 C 38.925781 13.324219 38.496094 13.542969 38.136719 13.816406 C 37.777344 14.089844 37.488281 14.410156 37.273438 14.777344 C 37.058594 15.144531 36.898438 15.539062 36.796875 15.957031 L 36.753906 15.957031 L 36.753906 13.210938 L 36.324219 13.210938 L 36.324219 24.324219 Z M 41.703125 18.851562 L 50.992188 18.851562 C 51.023438 18.089844 50.945312 17.355469 50.765625 16.648438 C 50.585938 15.941406 50.296875 15.316406 49.902344 14.765625 C 49.507812 14.21875 48.996094 13.78125 48.367188 13.449219 C 47.742188 13.117188 46.996094 12.949219 46.132812 12.949219 C 45.511719 12.949219 44.90625 13.082031 44.316406 13.339844 C 43.726562 13.597656 43.207031 13.976562 42.761719 14.476562 C 42.316406 14.972656 41.953125 15.582031 41.679688 16.300781 C 41.40625 17.023438 41.269531 17.84375 41.269531 18.765625 C 41.269531 19.589844 41.363281 20.355469 41.550781 21.070312 C 41.738281 21.78125 42.027344 22.402344 42.414062 22.929688 C 42.804688 23.453125 43.304688 23.863281 43.917969 24.148438 C 44.527344 24.4375 45.269531 24.574219 46.132812 24.558594 C 47.398438 24.558594 48.464844 24.203125 49.328125 23.492188 C 50.195312 22.777344 50.707031 21.773438 50.863281 20.472656 L 50.433594 20.472656 C 50.246094 21.699219 49.765625 22.617188 48.996094 23.230469 C 48.226562 23.84375 47.257812 24.148438 46.089844 24.148438 C 45.296875 24.148438 44.625 24.011719 44.078125 23.738281 C 43.53125 23.464844 43.085938 23.089844 42.738281 22.613281 C 42.394531 22.140625 42.140625 21.582031 41.972656 20.9375 C 41.808594 20.296875 41.71875 19.601562 41.703125 18.851562 Z M 50.5625 18.421875 L 41.703125 18.421875 C 41.746094 17.640625 41.890625 16.945312 42.136719 16.324219 C 42.378906 15.703125 42.699219 15.175781 43.097656 14.734375 C 43.492188 14.296875 43.953125 13.960938 44.480469 13.730469 C 45.003906 13.5 45.570312 13.382812 46.175781 13.382812 C 46.894531 13.382812 47.53125 13.515625 48.078125 13.785156 C 48.625 14.050781 49.082031 14.414062 49.449219 14.875 C 49.816406 15.335938 50.09375 15.875 50.28125 16.484375 C 50.46875 17.097656 50.5625 17.742188 50.5625 18.421875 Z M 59.960938 16.496094 L 60.394531 16.496094 C 60.394531 15.257812 60.03125 14.355469 59.3125 13.792969 C 58.589844 13.230469 57.613281 12.949219 56.375 12.949219 C 55.683594 12.949219 55.097656 13.039062 54.625 13.210938 C 54.148438 13.382812 53.761719 13.605469 53.457031 13.878906 C 53.152344 14.15625 52.9375 14.457031 52.808594 14.789062 C 52.679688 15.121094 52.613281 15.4375 52.613281 15.738281 C 52.613281 16.34375 52.722656 16.828125 52.9375 17.1875 C 53.152344 17.546875 53.492188 17.828125 53.953125 18.03125 C 54.269531 18.175781 54.632812 18.304688 55.035156 18.421875 C 55.4375 18.535156 55.90625 18.660156 56.4375 18.789062 C 56.914062 18.902344 57.382812 19.019531 57.84375 19.132812 C 58.304688 19.25 58.710938 19.40625 59.0625 19.597656 C 59.417969 19.792969 59.703125 20.042969 59.925781 20.34375 C 60.152344 20.648438 60.261719 21.042969 60.261719 21.535156 C 60.261719 22.007812 60.152344 22.414062 59.925781 22.746094 C 59.703125 23.074219 59.421875 23.347656 59.074219 23.554688 C 58.730469 23.765625 58.34375 23.914062 57.917969 24.011719 C 57.492188 24.101562 57.078125 24.148438 56.675781 24.148438 C 55.367188 24.148438 54.359375 23.859375 53.664062 23.273438 C 52.964844 22.691406 52.613281 21.773438 52.613281 20.519531 L 52.179688 20.519531 C 52.179688 21.914062 52.558594 22.941406 53.316406 23.589844 C 54.074219 24.234375 55.191406 24.558594 56.675781 24.558594 C 57.152344 24.558594 57.628906 24.507812 58.113281 24.398438 C 58.59375 24.289062 59.027344 24.113281 59.410156 23.867188 C 59.792969 23.625 60.101562 23.308594 60.339844 22.917969 C 60.574219 22.527344 60.695312 22.054688 60.695312 21.492188 C 60.695312 20.957031 60.589844 20.523438 60.382812 20.195312 C 60.171875 19.863281 59.898438 19.589844 59.558594 19.371094 C 59.222656 19.15625 58.839844 18.988281 58.414062 18.863281 C 57.988281 18.742188 57.5625 18.621094 57.128906 18.507812 C 56.523438 18.347656 55.996094 18.210938 55.542969 18.097656 C 55.085938 17.980469 54.667969 17.84375 54.277344 17.6875 C 53.902344 17.527344 53.605469 17.300781 53.382812 17.003906 C 53.15625 16.710938 53.046875 16.289062 53.046875 15.738281 C 53.046875 15.640625 53.074219 15.457031 53.132812 15.199219 C 53.191406 14.941406 53.328125 14.675781 53.542969 14.410156 C 53.761719 14.144531 54.089844 13.90625 54.535156 13.695312 C 54.984375 13.488281 55.597656 13.382812 56.375 13.382812 C 56.90625 13.382812 57.390625 13.441406 57.832031 13.554688 C 58.269531 13.671875 58.648438 13.855469 58.964844 14.109375 C 59.28125 14.359375 59.527344 14.679688 59.699219 15.070312 C 59.875 15.457031 59.960938 15.933594 59.960938 16.496094 Z M 69.964844 16.496094 L 70.398438 16.496094 C 70.398438 15.257812 70.035156 14.355469 69.316406 13.792969 C 68.59375 13.230469 67.617188 12.949219 66.378906 12.949219 C 65.6875 12.949219 65.101562 13.039062 64.628906 13.210938 C 64.152344 13.382812 63.761719 13.605469 63.460938 13.878906 C 63.15625 14.15625 62.941406 14.457031 62.8125 14.789062 C 62.683594 15.121094 62.617188 15.4375 62.617188 15.738281 C 62.617188 16.34375 62.726562 16.828125 62.941406 17.1875 C 63.15625 17.546875 63.496094 17.828125 63.957031 18.03125 C 64.273438 18.175781 64.636719 18.304688 65.039062 18.421875 C 65.441406 18.535156 65.910156 18.660156 66.441406 18.789062 C 66.917969 18.902344 67.386719 19.019531 67.847656 19.132812 C 68.308594 19.25 68.714844 19.40625 69.066406 19.597656 C 69.421875 19.792969 69.707031 20.042969 69.933594 20.34375 C 70.15625 20.648438 70.265625 21.042969 70.265625 21.535156 C 70.265625 22.007812 70.15625 22.414062 69.933594 22.746094 C 69.707031 23.074219 69.425781 23.347656 69.078125 23.554688 C 68.734375 23.765625 68.347656 23.914062 67.921875 24.011719 C 67.496094 24.101562 67.082031 24.148438 66.679688 24.148438 C 65.367188 24.148438 64.363281 23.859375 63.667969 23.273438 C 62.96875 22.691406 62.617188 21.773438 62.617188 20.519531 L 62.183594 20.519531 C 62.183594 21.914062 62.5625 22.941406 63.320312 23.589844 C 64.074219 24.234375 65.195312 24.558594 66.679688 24.558594 C 67.15625 24.558594 67.632812 24.507812 68.117188 24.398438 C 68.597656 24.289062 69.03125 24.113281 69.414062 23.867188 C 69.796875 23.625 70.105469 23.308594 70.34375 22.917969 C 70.578125 22.527344 70.699219 22.054688 70.699219 21.492188 C 70.699219 20.957031 70.59375 20.523438 70.386719 20.195312 C 70.175781 19.863281 69.902344 19.589844 69.5625 19.371094 C 69.226562 19.15625 68.84375 18.988281 68.417969 18.863281 C 67.996094 18.742188 67.566406 18.621094 67.132812 18.507812 C 66.527344 18.347656 66 18.210938 65.546875 18.097656 C 65.089844 17.980469 64.671875 17.84375 64.28125 17.6875 C 63.90625 17.527344 63.609375 17.300781 63.386719 17.003906 C 63.160156 16.710938 63.050781 16.289062 63.050781 15.738281 C 63.050781 15.640625 63.078125 15.457031 63.136719 15.199219 C 63.195312 14.941406 63.332031 14.675781 63.546875 14.410156 C 63.761719 14.144531 64.09375 13.90625 64.542969 13.695312 C 64.988281 13.488281 65.601562 13.382812 66.378906 13.382812 C 66.910156 13.382812 67.398438 13.441406 67.835938 13.554688 C 68.273438 13.671875 68.652344 13.855469 68.96875 14.109375 C 69.285156 14.359375 69.53125 14.679688 69.707031 15.070312 C 69.878906 15.457031 69.964844 15.933594 69.964844 16.496094 Z M 69.964844 16.496094 " fill-opacity="1" fill-rule="nonzero"/></g></svg>