<svg xmlns="http://www.w3.org/2000/svg" xmlns:xlink="http://www.w3.org/1999/xlink" width="100" zoomAndPan="magnify" viewBox="0 0 75 37.5" height="50" preserveAspectRatio="xMidYMid meet" version="1.0"><defs><clipPath id="e20ec29aee"><path d="M 22.699219 3.699219 L 52.300781 3.699219 L 52.300781 33.304688 L 22.699219 33.304688 Z M 22.699219 3.699219 " clip-rule="nonzero"/></clipPath></defs><g clip-path="url(#e20ec29aee)"><path fill="#f03c2e" d="M 51.742188 17.183594 L 38.816406 4.257812 C 38.640625 4.082031 38.433594 3.941406 38.199219 3.847656 C 37.964844 3.75 37.722656 3.699219 37.46875 3.699219 C 37.21875 3.699219 36.972656 3.75 36.742188 3.847656 C 36.507812 3.941406 36.300781 4.082031 36.121094 4.257812 L 33.4375 6.941406 L 36.84375 10.347656 C 37.636719 10.070312 38.542969 10.257812 39.171875 10.890625 C 39.480469 11.195312 39.683594 11.5625 39.777344 11.984375 C 39.875 12.40625 39.851562 12.824219 39.710938 13.234375 L 42.992188 16.515625 C 43.785156 16.242188 44.703125 16.417969 45.335938 17.054688 C 45.550781 17.265625 45.714844 17.511719 45.828125 17.789062 C 45.945312 18.066406 46 18.355469 46 18.660156 C 46 18.960938 45.945312 19.25 45.828125 19.527344 C 45.714844 19.804688 45.550781 20.050781 45.335938 20.261719 C 45.125 20.476562 44.878906 20.640625 44.601562 20.753906 C 44.320312 20.871094 44.03125 20.929688 43.730469 20.925781 C 43.429688 20.925781 43.140625 20.871094 42.863281 20.753906 C 42.585938 20.640625 42.339844 20.476562 42.125 20.261719 C 41.460938 19.597656 41.296875 18.613281 41.632812 17.792969 L 38.570312 14.734375 L 38.570312 22.789062 C 38.796875 22.898438 38.996094 23.042969 39.171875 23.21875 C 39.386719 23.429688 39.550781 23.675781 39.664062 23.953125 C 39.78125 24.230469 39.839844 24.519531 39.839844 24.820312 C 39.839844 25.121094 39.78125 25.410156 39.664062 25.6875 C 39.550781 25.96875 39.386719 26.210938 39.171875 26.425781 C 38.960938 26.636719 38.714844 26.800781 38.4375 26.917969 C 38.160156 27.03125 37.871094 27.089844 37.570312 27.089844 C 37.269531 27.089844 36.980469 27.03125 36.703125 26.917969 C 36.421875 26.800781 36.179688 26.636719 35.964844 26.425781 C 35.753906 26.210938 35.589844 25.96875 35.472656 25.691406 C 35.359375 25.410156 35.300781 25.121094 35.300781 24.820312 C 35.300781 24.519531 35.359375 24.230469 35.472656 23.953125 C 35.589844 23.675781 35.753906 23.429688 35.964844 23.21875 C 36.183594 23 36.425781 22.832031 36.707031 22.722656 L 36.707031 14.59375 C 36.4375 14.484375 36.183594 14.320312 35.964844 14.097656 C 35.640625 13.773438 35.433594 13.382812 35.34375 12.933594 C 35.253906 12.480469 35.296875 12.042969 35.476562 11.617188 L 32.117188 8.261719 L 23.253906 17.117188 C 23.078125 17.292969 22.9375 17.5 22.839844 17.734375 C 22.746094 17.96875 22.695312 18.210938 22.695312 18.464844 C 22.695312 18.71875 22.746094 18.960938 22.839844 19.195312 C 22.9375 19.425781 23.078125 19.632812 23.253906 19.8125 L 36.179688 32.738281 C 36.359375 32.914062 36.566406 33.054688 36.800781 33.148438 C 37.035156 33.246094 37.277344 33.296875 37.53125 33.296875 C 37.78125 33.296875 38.027344 33.246094 38.257812 33.148438 C 38.492188 33.054688 38.699219 32.914062 38.878906 32.738281 L 51.742188 19.890625 C 51.921875 19.710938 52.0625 19.507812 52.15625 19.273438 C 52.253906 19.039062 52.304688 18.796875 52.304688 18.542969 C 52.304688 18.289062 52.253906 18.046875 52.15625 17.8125 C 52.0625 17.578125 51.921875 17.371094 51.742188 17.195312 " fill-opacity="1" fill-rule="nonzero"/></g></svg>