<svg xmlns="http://www.w3.org/2000/svg" xmlns:xlink="http://www.w3.org/1999/xlink" width="100" zoomAndPan="magnify" viewBox="0 0 75 37.5" height="50" preserveAspectRatio="xMidYMid meet" version="1.0"><defs><clipPath id="3bd6dfd085"><path d="M 4.195312 11.054688 L 70.804688 11.054688 L 70.804688 25.859375 L 4.195312 25.859375 Z M 4.195312 11.054688 " clip-rule="nonzero"/></clipPath><clipPath id="b9432dc490"><path d="M 9 11.054688 L 54 11.054688 L 54 25.859375 L 9 25.859375 Z M 9 11.054688 " clip-rule="nonzero"/></clipPath><clipPath id="0b3b140ef6"><path d="M 47 11.054688 L 56 11.054688 L 56 25.859375 L 47 25.859375 Z M 47 11.054688 " clip-rule="nonzero"/></clipPath><clipPath id="472c3cd3e3"><path d="M 50 11.054688 L 67 11.054688 L 67 25.859375 L 50 25.859375 Z M 50 11.054688 " clip-rule="nonzero"/></clipPath></defs><g clip-path="url(#3bd6dfd085)"><path fill="#555588" d="M 6.359375 20.933594 C 6.359375 20.402344 6.175781 20.015625 5.808594 19.789062 C 5.449219 19.5625 4.917969 19.449219 4.222656 19.449219 L 4.222656 17.46875 C 4.570312 17.46875 4.875 17.441406 5.140625 17.390625 C 5.414062 17.335938 5.640625 17.25 5.824219 17.136719 C 6.007812 17.015625 6.144531 16.859375 6.234375 16.671875 C 6.328125 16.484375 6.371094 16.257812 6.359375 15.992188 L 6.359375 13.355469 C 6.359375 12.949219 6.410156 12.597656 6.519531 12.3125 C 6.625 12.015625 6.816406 11.78125 7.085938 11.597656 C 7.363281 11.410156 7.738281 11.273438 8.210938 11.183594 C 8.683594 11.097656 9.285156 11.054688 10.011719 11.054688 L 10.011719 12.921875 C 9.808594 12.925781 9.605469 12.945312 9.402344 12.976562 C 9.226562 13.011719 9.074219 13.070312 8.945312 13.160156 C 8.824219 13.242188 8.726562 13.359375 8.660156 13.507812 C 8.59375 13.65625 8.5625 13.851562 8.5625 14.089844 L 8.5625 16.566406 C 8.527344 17.601562 7.878906 18.214844 6.609375 18.40625 L 6.609375 18.507812 C 7.25 18.601562 7.742188 18.800781 8.078125 19.101562 C 8.414062 19.402344 8.578125 19.820312 8.5625 20.335938 L 8.5625 22.816406 C 8.5625 23.054688 8.59375 23.246094 8.660156 23.394531 C 8.726562 23.546875 8.824219 23.660156 8.945312 23.742188 C 9.074219 23.832031 9.226562 23.894531 9.402344 23.925781 C 9.585938 23.960938 9.789062 23.980469 10.011719 23.984375 L 10.011719 25.859375 C 9.285156 25.859375 8.683594 25.8125 8.210938 25.726562 C 7.738281 25.636719 7.363281 25.5 7.085938 25.308594 C 6.8125 25.128906 6.625 24.890625 6.519531 24.597656 C 6.414062 24.304688 6.359375 23.953125 6.359375 23.546875 L 6.359375 20.933594 M 68.632812 23.546875 C 68.632812 23.953125 68.582031 24.304688 68.476562 24.597656 C 68.367188 24.890625 68.175781 25.128906 67.898438 25.308594 C 67.625 25.5 67.253906 25.636719 66.78125 25.726562 C 66.308594 25.8125 65.710938 25.859375 64.976562 25.859375 L 64.976562 23.984375 C 65.199219 23.976562 65.398438 23.960938 65.578125 23.925781 C 65.753906 23.894531 65.90625 23.832031 66.027344 23.742188 C 66.15625 23.660156 66.253906 23.546875 66.320312 23.394531 C 66.390625 23.246094 66.429688 23.054688 66.429688 22.816406 L 66.429688 20.335938 C 66.410156 19.816406 66.574219 19.40625 66.910156 19.101562 C 67.25 18.800781 67.738281 18.601562 68.371094 18.507812 L 68.371094 18.40625 C 67.109375 18.214844 66.464844 17.601562 66.429688 16.566406 L 66.429688 14.089844 C 66.429688 13.851562 66.394531 13.65625 66.320312 13.507812 C 66.257812 13.363281 66.160156 13.246094 66.027344 13.160156 C 65.910156 13.070312 65.753906 13.011719 65.578125 12.976562 C 65.378906 12.941406 65.179688 12.921875 64.976562 12.921875 L 64.976562 11.054688 C 65.707031 11.054688 66.304688 11.097656 66.777344 11.1875 C 67.25 11.277344 67.625 11.414062 67.894531 11.601562 C 68.171875 11.785156 68.367188 12.023438 68.472656 12.316406 C 68.578125 12.601562 68.628906 12.949219 68.628906 13.359375 L 68.628906 15.996094 C 68.625 16.261719 68.664062 16.484375 68.753906 16.675781 C 68.84375 16.863281 68.980469 17.015625 69.164062 17.136719 C 69.347656 17.253906 69.570312 17.339844 69.839844 17.394531 C 70.113281 17.445312 70.421875 17.46875 70.765625 17.46875 L 70.765625 19.453125 C 70.070312 19.453125 69.539062 19.566406 69.171875 19.792969 C 68.8125 20.019531 68.628906 20.402344 68.628906 20.9375 L 68.628906 23.546875 " fill-opacity="1" fill-rule="nonzero"/></g><path fill="#000000" d="M 13.578125 24.058594 C 13.390625 24.058594 13.222656 24.046875 13.082031 24.019531 C 12.941406 23.996094 12.820312 23.964844 12.714844 23.925781 L 12.714844 23.039062 C 12.847656 23.074219 12.984375 23.101562 13.121094 23.117188 C 13.277344 23.140625 13.433594 23.152344 13.589844 23.148438 C 13.730469 23.148438 13.867188 23.132812 14.003906 23.09375 C 14.144531 23.0625 14.269531 23 14.382812 22.90625 C 14.496094 22.8125 14.589844 22.6875 14.660156 22.523438 C 14.730469 22.355469 14.769531 22.152344 14.769531 21.902344 L 14.769531 13.800781 L 15.808594 13.800781 L 15.808594 21.792969 C 15.808594 22.175781 15.753906 22.515625 15.644531 22.800781 C 15.535156 23.085938 15.382812 23.320312 15.1875 23.503906 C 14.992188 23.691406 14.757812 23.832031 14.484375 23.921875 C 14.214844 24.011719 13.84375 24.058594 13.511719 24.058594 M 20.992188 21.0625 L 20.949219 21.0625 C 20.824219 21.226562 20.703125 21.371094 20.578125 21.492188 C 20.460938 21.609375 20.324219 21.707031 20.179688 21.789062 C 20.035156 21.863281 19.871094 21.921875 19.695312 21.960938 C 19.515625 21.996094 19.304688 22.015625 19.074219 22.015625 C 18.820312 22.015625 18.582031 21.976562 18.367188 21.902344 C 18.15625 21.835938 17.96875 21.726562 17.804688 21.578125 C 17.648438 21.429688 17.523438 21.238281 17.4375 21.015625 C 17.347656 20.785156 17.300781 20.515625 17.300781 20.207031 C 17.300781 19.601562 17.515625 19.132812 17.941406 18.808594 C 18.375 18.484375 19.027344 18.308594 19.90625 18.277344 L 20.929688 18.238281 L 20.929688 17.851562 C 20.929688 17.605469 20.902344 17.398438 20.847656 17.234375 C 20.796875 17.066406 20.71875 16.9375 20.613281 16.835938 C 20.511719 16.730469 20.386719 16.65625 20.234375 16.613281 C 20.085938 16.566406 19.914062 16.546875 19.722656 16.546875 C 19.425781 16.542969 19.136719 16.585938 18.855469 16.679688 C 18.59375 16.765625 18.339844 16.875 18.09375 17 L 17.734375 16.242188 C 18.011719 16.09375 18.316406 15.96875 18.65625 15.863281 C 19.003906 15.757812 19.359375 15.707031 19.71875 15.707031 C 20.101562 15.707031 20.425781 15.746094 20.703125 15.824219 C 20.980469 15.898438 21.210938 16.019531 21.386719 16.183594 C 21.566406 16.347656 21.707031 16.554688 21.792969 16.8125 C 21.882812 17.066406 21.929688 17.375 21.929688 17.738281 L 21.929688 21.902344 L 21.195312 21.902344 Z M 19.335938 21.195312 C 19.5625 21.195312 19.773438 21.160156 19.964844 21.089844 C 20.160156 21.023438 20.324219 20.917969 20.46875 20.777344 C 20.609375 20.632812 20.71875 20.453125 20.796875 20.238281 C 20.878906 20.019531 20.917969 19.765625 20.917969 19.472656 L 20.917969 18.925781 L 20.121094 18.964844 C 19.789062 18.980469 19.507812 19.015625 19.28125 19.074219 C 19.054688 19.132812 18.871094 19.21875 18.734375 19.324219 C 18.601562 19.425781 18.503906 19.550781 18.445312 19.707031 C 18.386719 19.855469 18.355469 20.023438 18.355469 20.210938 C 18.355469 20.550781 18.445312 20.800781 18.621094 20.957031 C 18.800781 21.117188 19.039062 21.195312 19.335938 21.195312 M 22.78125 15.820312 L 23.828125 15.820312 L 24.9375 19.207031 L 25.082031 19.679688 L 25.25 20.265625 L 25.398438 20.828125 L 25.496094 21.234375 L 25.535156 21.234375 L 25.628906 20.828125 L 25.777344 20.265625 L 25.945312 19.679688 L 26.089844 19.207031 L 27.199219 15.820312 L 28.246094 15.820312 L 26.15625 21.902344 L 24.867188 21.902344 Z M 32.394531 21.0625 L 32.347656 21.0625 C 32.226562 21.226562 32.105469 21.371094 31.980469 21.492188 C 31.863281 21.609375 31.726562 21.707031 31.578125 21.789062 C 31.433594 21.863281 31.273438 21.921875 31.09375 21.960938 C 30.917969 21.996094 30.707031 22.015625 30.476562 22.015625 C 30.21875 22.015625 29.984375 21.976562 29.769531 21.902344 C 29.554688 21.835938 29.367188 21.726562 29.207031 21.578125 C 29.050781 21.429688 28.925781 21.238281 28.835938 21.015625 C 28.746094 20.785156 28.703125 20.515625 28.703125 20.207031 C 28.703125 19.601562 28.917969 19.132812 29.34375 18.808594 C 29.773438 18.484375 30.429688 18.308594 31.304688 18.277344 L 32.332031 18.238281 L 32.332031 17.851562 C 32.332031 17.605469 32.304688 17.398438 32.25 17.234375 C 32.195312 17.066406 32.117188 16.9375 32.015625 16.835938 C 31.914062 16.730469 31.789062 16.65625 31.636719 16.613281 C 31.488281 16.566406 31.316406 16.546875 31.121094 16.546875 C 30.828125 16.542969 30.539062 16.585938 30.257812 16.679688 C 29.996094 16.765625 29.738281 16.875 29.496094 17 L 29.136719 16.242188 C 29.414062 16.09375 29.71875 15.96875 30.058594 15.863281 C 30.40625 15.757812 30.757812 15.707031 31.121094 15.707031 C 31.5 15.707031 31.828125 15.746094 32.101562 15.824219 C 32.382812 15.898438 32.609375 16.019531 32.789062 16.183594 C 32.96875 16.347656 33.105469 16.554688 33.195312 16.8125 C 33.285156 17.066406 33.332031 17.375 33.332031 17.738281 L 33.332031 21.902344 L 32.601562 21.902344 Z M 30.738281 21.199219 C 30.964844 21.199219 31.175781 21.164062 31.367188 21.09375 C 31.5625 21.023438 31.726562 20.917969 31.871094 20.777344 C 32.011719 20.632812 32.121094 20.457031 32.199219 20.242188 C 32.28125 20.023438 32.320312 19.769531 32.320312 19.476562 L 32.320312 18.929688 L 31.523438 18.96875 C 31.191406 18.980469 30.910156 19.019531 30.683594 19.078125 C 30.457031 19.136719 30.273438 19.21875 30.136719 19.328125 C 30.003906 19.425781 29.90625 19.554688 29.847656 19.710938 C 29.785156 19.855469 29.757812 20.023438 29.757812 20.214844 C 29.757812 20.554688 29.847656 20.804688 30.023438 20.960938 C 30.203125 21.121094 30.441406 21.199219 30.738281 21.199219 M 39.582031 19.738281 C 39.582031 20.09375 39.519531 20.417969 39.390625 20.699219 C 39.261719 20.980469 39.078125 21.21875 38.84375 21.414062 C 38.605469 21.609375 38.316406 21.761719 37.972656 21.863281 C 37.628906 21.964844 37.246094 22.015625 36.820312 22.015625 C 36.40625 22.015625 36.019531 21.980469 35.660156 21.914062 C 35.300781 21.851562 35.003906 21.757812 34.761719 21.632812 L 34.761719 20.644531 L 35.191406 20.824219 L 35.703125 20.972656 L 36.253906 21.082031 C 36.441406 21.109375 36.632812 21.121094 36.820312 21.121094 C 37.414062 21.121094 37.855469 21.011719 38.136719 20.789062 C 38.421875 20.566406 38.566406 20.25 38.566406 19.835938 C 38.566406 19.636719 38.539062 19.464844 38.484375 19.316406 C 38.429688 19.167969 38.335938 19.03125 38.199219 18.910156 C 38.0625 18.785156 37.882812 18.664062 37.65625 18.550781 C 37.429688 18.433594 37.144531 18.304688 36.800781 18.167969 C 36.472656 18.035156 36.179688 17.898438 35.933594 17.746094 C 35.695312 17.589844 35.492188 17.417969 35.332031 17.222656 C 35.175781 17.027344 35.058594 16.808594 34.980469 16.570312 C 34.90625 16.328125 34.871094 16.050781 34.871094 15.738281 C 34.871094 15.414062 34.929688 15.125 35.050781 14.871094 C 35.167969 14.613281 35.335938 14.402344 35.550781 14.226562 C 35.765625 14.050781 36.023438 13.914062 36.320312 13.824219 C 36.617188 13.730469 36.953125 13.683594 37.3125 13.683594 C 37.753906 13.683594 38.152344 13.726562 38.503906 13.8125 C 38.859375 13.894531 39.171875 14 39.449219 14.128906 L 39.074219 14.992188 C 38.835938 14.886719 38.558594 14.792969 38.25 14.714844 C 37.9375 14.632812 37.621094 14.59375 37.300781 14.59375 C 36.847656 14.59375 36.496094 14.699219 36.246094 14.910156 C 36 15.117188 35.875 15.398438 35.875 15.75 C 35.875 15.957031 35.902344 16.144531 35.957031 16.300781 C 36.011719 16.449219 36.105469 16.589844 36.234375 16.714844 C 36.367188 16.835938 36.535156 16.953125 36.75 17.0625 C 37.007812 17.191406 37.273438 17.304688 37.539062 17.40625 C 37.878906 17.542969 38.175781 17.675781 38.425781 17.816406 C 38.683594 17.957031 38.898438 18.113281 39.066406 18.292969 C 39.238281 18.46875 39.367188 18.675781 39.453125 18.90625 C 39.542969 19.140625 39.589844 19.425781 39.589844 19.742188 M 43.363281 22.007812 C 42.984375 22.007812 42.632812 21.949219 42.308594 21.835938 C 41.980469 21.71875 41.695312 21.535156 41.453125 21.28125 C 41.214844 21.027344 41.023438 20.703125 40.890625 20.3125 C 40.75 19.917969 40.683594 19.441406 40.683594 18.890625 C 40.683594 18.3125 40.753906 17.820312 40.890625 17.417969 C 41.03125 17.011719 41.226562 16.683594 41.472656 16.433594 C 41.71875 16.175781 42.007812 15.992188 42.339844 15.878906 C 42.675781 15.765625 43.027344 15.707031 43.40625 15.707031 C 43.691406 15.707031 43.972656 15.738281 44.253906 15.800781 C 44.53125 15.863281 44.765625 15.941406 44.949219 16.035156 L 44.652344 16.886719 C 44.558594 16.847656 44.464844 16.8125 44.367188 16.78125 C 44.261719 16.742188 44.15625 16.710938 44.042969 16.6875 C 43.9375 16.660156 43.828125 16.636719 43.714844 16.621094 C 43.609375 16.601562 43.503906 16.59375 43.410156 16.59375 C 42.824219 16.59375 42.398438 16.78125 42.132812 17.15625 C 41.863281 17.523438 41.730469 18.101562 41.730469 18.882812 C 41.730469 19.664062 41.863281 20.234375 42.132812 20.597656 C 42.402344 20.949219 42.816406 21.132812 43.363281 21.132812 C 43.664062 21.132812 43.9375 21.101562 44.179688 21.035156 C 44.421875 20.964844 44.648438 20.886719 44.847656 20.789062 L 44.847656 21.6875 C 44.640625 21.796875 44.425781 21.878906 44.199219 21.929688 C 43.972656 21.984375 43.679688 22.015625 43.347656 22.015625 M 48.890625 15.710938 L 49.253906 15.726562 C 49.367188 15.730469 49.484375 15.742188 49.597656 15.765625 L 49.464844 16.695312 L 49.140625 16.652344 C 49.03125 16.636719 48.929688 16.628906 48.832031 16.628906 C 48.597656 16.628906 48.386719 16.675781 48.191406 16.773438 C 48 16.863281 47.835938 17 47.691406 17.175781 C 47.554688 17.351562 47.445312 17.5625 47.367188 17.808594 C 47.292969 18.050781 47.257812 18.324219 47.257812 18.621094 L 47.257812 21.902344 L 46.242188 21.902344 L 46.242188 15.820312 L 47.066406 15.820312 L 47.1875 16.933594 L 47.234375 16.933594 L 47.53125 16.472656 C 47.632812 16.332031 47.75 16.203125 47.886719 16.089844 C 48.019531 15.972656 48.167969 15.882812 48.332031 15.816406 C 48.496094 15.746094 48.699219 15.710938 48.90625 15.710938 " fill-opacity="1" fill-rule="nonzero"/><g clip-path="url(#b9432dc490)"><path stroke-linecap="butt" transform="matrix(0.297903, 0, 0, 0.296053, 1.24521, 9.574614)" fill="none" stroke-linejoin="miter" d="M 41.399102 48.923666 C 40.769702 48.923666 40.205865 48.884082 39.733816 48.791721 C 39.261766 48.712555 38.855279 48.606999 38.501241 48.475055 L 38.501241 45.479916 C 38.947066 45.598666 39.406003 45.691027 39.864941 45.743805 C 40.38944 45.822971 40.91394 45.862555 41.43844 45.84936 C 41.910489 45.84936 42.369426 45.796582 42.828364 45.664638 C 43.300413 45.559082 43.720013 45.347971 44.100275 45.031305 C 44.480538 44.714638 44.795237 44.292416 45.031262 43.738249 C 45.267287 43.170888 45.398412 42.484777 45.398412 41.640332 L 45.398412 14.275053 L 48.886335 14.275053 L 48.886335 41.270888 C 48.886335 42.563943 48.70276 43.71186 48.33561 44.675054 C 47.968461 45.638249 47.457073 46.429916 46.801449 47.050055 C 46.145824 47.683388 45.359075 48.158388 44.4412 48.46186 C 43.536438 48.765332 42.290752 48.923666 41.17619 48.923666 M 66.286612 38.803526 L 66.142374 38.803526 C 65.722775 39.357693 65.316287 39.845888 64.896688 40.254915 C 64.503313 40.650749 64.044376 40.98061 63.559213 41.257693 C 63.074051 41.508388 62.523327 41.706304 61.933264 41.838249 C 61.33009 41.956999 60.622015 42.022971 59.848378 42.022971 C 58.996066 42.022971 58.196204 41.891027 57.475017 41.640332 C 56.766943 41.416027 56.137543 41.046582 55.586818 40.545193 C 55.062319 40.043804 54.642719 39.397277 54.354244 38.645193 C 54.052657 37.866721 53.895307 36.956304 53.895307 35.913943 C 53.895307 33.868804 54.616494 32.285471 56.045756 31.190332 C 57.501242 30.095193 59.691028 29.501443 62.641339 29.395887 L 66.076812 29.263943 L 66.076812 27.957693 C 66.076812 27.126443 65.985024 26.427137 65.80145 25.87297 C 65.630987 25.305609 65.368737 24.870193 65.0147 24.527137 C 64.673775 24.170887 64.254175 23.920193 63.742788 23.775054 C 63.244514 23.61672 62.667564 23.550748 62.025052 23.550748 C 61.028502 23.537554 60.058178 23.682693 59.114079 23.999359 C 58.235542 24.289637 57.38323 24.659081 56.557143 25.081304 L 55.350793 22.521581 C 56.28178 22.020192 57.304555 21.59797 58.445342 21.24172 C 59.612353 20.88547 60.80559 20.713942 62.011939 20.713942 C 63.296964 20.713942 64.3853 20.845887 65.316287 21.109776 C 66.247274 21.36047 67.020911 21.769498 67.610973 22.323665 C 68.214148 22.877831 68.686198 23.577137 68.974673 24.44797 C 69.27626 25.305609 69.43361 26.34797 69.43361 27.575054 L 69.43361 41.640332 L 66.968461 41.640332 Z M 60.726915 39.252138 C 61.48744 39.252138 62.195514 39.133388 62.838026 38.895888 C 63.493651 38.671582 64.044376 38.315332 64.529538 37.840332 C 65.001588 37.352138 65.368737 36.745193 65.630987 36.019499 C 65.906349 35.28061 66.037474 34.422971 66.037474 33.433387 L 66.037474 31.586165 L 63.362526 31.71811 C 62.247964 31.770887 61.303865 31.889637 60.54334 32.087554 C 59.782816 32.285471 59.166529 32.575748 58.707591 32.931998 C 58.261767 33.275054 57.933954 33.697276 57.737267 34.225054 C 57.54058 34.726443 57.43568 35.293804 57.43568 35.927137 C 57.43568 37.075054 57.737267 37.919499 58.327329 38.447276 C 58.930504 38.988249 59.730366 39.252138 60.726915 39.252138 M 72.292133 21.096581 L 75.806281 21.096581 L 79.530229 32.536165 L 80.015391 34.132693 L 80.579228 36.11186 L 81.077503 38.01186 L 81.405315 39.384082 L 81.53644 39.384082 L 81.85114 38.01186 L 82.349414 36.11186 L 82.913251 34.132693 L 83.398414 32.536165 L 87.122361 21.096581 L 90.636509 21.096581 L 83.621326 41.640332 L 79.294204 41.640332 Z M 104.561976 38.803526 L 104.404626 38.803526 C 103.998139 39.357693 103.591651 39.845888 103.172052 40.254915 C 102.778677 40.650749 102.31974 40.98061 101.821465 41.257693 C 101.336303 41.508388 100.79869 41.706304 100.195516 41.838249 C 99.605454 41.956999 98.897379 42.022971 98.123742 42.022971 C 97.258318 42.022971 96.471568 41.891027 95.750381 41.640332 C 95.029194 41.416027 94.399794 41.046582 93.862182 40.545193 C 93.337683 40.043804 92.918083 39.397277 92.616496 38.645193 C 92.314908 37.866721 92.170671 36.956304 92.170671 35.913943 C 92.170671 33.868804 92.891858 32.285471 94.321119 31.190332 C 95.763494 30.095193 97.966392 29.501443 100.90359 29.395887 L 104.352176 29.263943 L 104.352176 27.957693 C 104.352176 27.126443 104.260388 26.427137 104.076813 25.87297 C 103.893239 25.305609 103.630989 24.870193 103.290064 24.527137 C 102.949139 24.170887 102.529539 23.920193 102.018152 23.775054 C 101.519878 23.61672 100.942928 23.550748 100.287303 23.550748 C 99.303866 23.537554 98.333542 23.682693 97.389443 23.999359 C 96.510906 24.289637 95.645481 24.659081 94.832507 25.081304 L 93.626157 22.521581 C 94.557144 22.020192 95.579919 21.59797 96.720705 21.24172 C 97.887717 20.88547 99.067842 20.713942 100.287303 20.713942 C 101.559215 20.713942 102.660664 20.845887 103.578539 21.109776 C 104.522638 21.36047 105.283163 21.769498 105.886337 22.323665 C 106.489512 22.877831 106.948449 23.577137 107.250036 24.44797 C 107.551624 25.305609 107.708974 26.34797 107.708974 27.575054 L 107.708974 41.640332 L 105.256938 41.640332 Z M 99.002279 39.265332 C 99.762804 39.265332 100.470878 39.146582 101.11339 38.909082 C 101.769015 38.671582 102.31974 38.315332 102.804902 37.840332 C 103.276951 37.352138 103.644101 36.758388 103.906351 36.032693 C 104.181713 35.293804 104.312838 34.436165 104.312838 33.446582 L 104.312838 31.59936 L 101.63789 31.731304 C 100.523328 31.770887 99.579229 31.902832 98.818704 32.100748 C 98.05818 32.298665 97.441893 32.575748 96.982955 32.945193 C 96.537131 33.275054 96.209318 33.710471 96.012631 34.238249 C 95.802831 34.726443 95.711044 35.293804 95.711044 35.940332 C 95.711044 37.088249 96.012631 37.932693 96.602693 38.460471 C 97.205868 39.001443 98.00573 39.265332 99.002279 39.265332 M 128.688961 34.33061 C 128.688961 35.531304 128.479161 36.626443 128.046449 37.576443 C 127.613736 38.526443 126.997449 39.331304 126.2107 39.991027 C 125.410838 40.650749 124.440513 41.165332 123.286614 41.508388 C 122.132715 41.851443 120.847691 42.022971 119.418429 42.022971 C 118.028505 42.022971 116.730368 41.904221 115.524019 41.679915 C 114.31767 41.468804 113.32112 41.152138 112.508146 40.729915 L 112.508146 37.391721 L 113.95052 37.998665 L 115.668256 38.500054 L 117.517118 38.869499 C 118.146517 38.96186 118.789029 39.001443 119.418429 39.001443 C 121.411528 39.001443 122.893239 38.631999 123.837339 37.879915 C 124.794551 37.127832 125.279713 36.059082 125.279713 34.660471 C 125.279713 33.987554 125.187925 33.406998 125.004351 32.90561 C 124.820776 32.404221 124.506076 31.942415 124.047139 31.533387 C 123.588201 31.111165 122.985027 30.702137 122.224502 30.319498 C 121.463978 29.923665 120.506766 29.488248 119.352867 29.026443 C 118.251417 28.577832 117.26798 28.116026 116.441893 27.601443 C 115.642031 27.073665 114.960182 26.493109 114.42257 25.833387 C 113.89807 25.173665 113.504695 24.434776 113.242445 23.629915 C 112.993308 22.811859 112.875296 21.875054 112.875296 20.819498 C 112.875296 19.724359 113.071983 18.74797 113.47847 17.890331 C 113.871845 17.019498 114.435682 16.306998 115.156869 15.713248 C 115.878056 15.119498 116.743481 14.657692 117.74003 14.35422 C 118.736579 14.037553 119.864254 13.87922 121.070603 13.87922 C 122.552315 13.87922 123.889789 14.024359 125.069913 14.314637 C 126.26315 14.59172 127.312149 14.94797 128.243136 15.383387 L 126.984337 18.299359 C 126.184475 17.943109 125.253488 17.626442 124.217601 17.362553 C 123.168602 17.08547 122.10649 16.953526 121.031266 16.953526 C 119.510216 16.953526 118.330092 17.309776 117.490893 18.022276 C 116.664806 18.721581 116.245206 19.671581 116.245206 20.859081 C 116.245206 21.558387 116.336993 22.19172 116.520568 22.719498 C 116.704143 23.220887 117.018843 23.695887 117.451555 24.118109 C 117.89738 24.527137 118.461217 24.92297 119.182404 25.292415 C 120.047829 25.727831 120.939478 26.11047 121.831128 26.453526 C 122.971914 26.915332 123.968464 27.363943 124.807663 27.838943 C 125.673088 28.313943 126.394275 28.841721 126.958112 29.448665 C 127.535061 30.042415 127.967774 30.741721 128.256249 31.520193 C 128.557836 32.31186 128.715186 33.275054 128.715186 34.343804 M 141.381853 41.996582 C 140.109941 41.996582 138.929817 41.798665 137.84148 41.416027 C 136.740031 41.020193 135.782819 40.400054 134.969844 39.542415 C 134.169982 38.684776 133.52747 37.589638 133.081646 36.270193 C 132.609596 34.937554 132.386684 33.327832 132.386684 31.467415 C 132.386684 29.514637 132.622708 27.852137 133.081646 26.493109 C 133.553695 25.120887 134.20932 24.012554 135.035407 23.168109 C 135.861494 22.297276 136.831818 21.677137 137.94638 21.294498 C 139.074054 20.911859 140.254179 20.713942 141.52609 20.713942 C 142.483302 20.713942 143.427402 20.819498 144.371501 21.030609 C 145.302488 21.24172 146.089238 21.505609 146.705525 21.822276 L 145.708975 24.698665 C 145.394275 24.56672 145.079576 24.44797 144.751763 24.342415 C 144.397726 24.21047 144.043689 24.104915 143.663427 24.025748 C 143.309389 23.933387 142.94224 23.85422 142.561977 23.801443 C 142.20794 23.73547 141.853903 23.709081 141.539203 23.709081 C 139.572329 23.709081 138.143067 24.342415 137.251418 25.609081 C 136.346656 26.849359 135.900831 28.802137 135.900831 31.441026 C 135.900831 34.079915 136.346656 36.006304 137.251418 37.233388 C 138.15618 38.420888 139.546104 39.041026 141.381853 39.041026 C 142.391515 39.041026 143.309389 38.935471 144.122364 38.711165 C 144.935338 38.473665 145.695863 38.209776 146.3646 37.879915 L 146.3646 40.914638 C 145.669638 41.284082 144.948451 41.561165 144.187926 41.732693 C 143.427402 41.917415 142.443965 42.022971 141.329403 42.022971 M 159.936029 20.727137 L 161.155491 20.779915 C 161.535753 20.793109 161.929128 20.832692 162.30939 20.911859 L 161.863565 24.052137 L 160.775229 23.906998 C 160.408079 23.85422 160.067154 23.827831 159.739342 23.827831 C 158.952592 23.827831 158.244518 23.986165 157.588893 24.316026 C 156.946381 24.619498 156.395656 25.081304 155.910494 25.675054 C 155.451557 26.268804 155.084407 26.981304 154.822157 27.812554 C 154.57302 28.630609 154.455007 29.554221 154.455007 30.556998 L 154.455007 41.640332 L 151.04576 41.640332 L 151.04576 21.096581 L 153.812495 21.096581 L 154.218983 24.856998 L 154.376332 24.856998 L 155.372882 23.300054 C 155.713807 22.825054 156.107181 22.389637 156.566119 22.006998 C 157.011943 21.611165 157.510218 21.307692 158.060943 21.083387 C 158.611667 20.845887 159.293517 20.727137 159.988479 20.727137 " stroke="#000000" stroke-width="2.129" stroke-opacity="1" stroke-miterlimit="4"/></g><path fill="#000000" d="M 51.742188 21.902344 L 50.726562 21.902344 L 50.726562 15.820312 L 51.742188 15.820312 L 51.742188 21.902344 M 50.816406 13.691406 C 50.929688 13.589844 51.070312 13.539062 51.238281 13.539062 C 51.320312 13.539062 51.398438 13.554688 51.46875 13.578125 C 51.539062 13.601562 51.601562 13.636719 51.65625 13.691406 C 51.710938 13.742188 51.753906 13.808594 51.785156 13.890625 C 51.816406 13.96875 51.835938 14.0625 51.835938 14.171875 C 51.835938 14.386719 51.773438 14.546875 51.65625 14.652344 C 51.539062 14.757812 51.402344 14.808594 51.238281 14.808594 C 51.070312 14.808594 50.925781 14.730469 50.808594 14.628906 C 50.699219 14.523438 50.644531 14.363281 50.644531 14.160156 C 50.644531 13.949219 50.703125 13.789062 50.8125 13.691406 Z M 50.816406 13.691406 " fill-opacity="1" fill-rule="nonzero"/><g clip-path="url(#0b3b140ef6)"><path stroke-linecap="square" transform="matrix(0.297903, 0, 0, 0.296053, 1.24521, 9.574614)" fill="none" stroke-linejoin="miter" d="M 169.508148 41.640332 L 166.0989 41.640332 L 166.0989 21.096581 L 169.508148 21.096581 L 169.508148 41.640332 M 166.400488 13.905609 C 166.78075 13.562553 167.2528 13.391025 167.816637 13.391025 C 168.091999 13.391025 168.354249 13.443803 168.590274 13.52297 C 168.826299 13.602137 169.036098 13.720887 169.219673 13.905609 C 169.403248 14.077137 169.547486 14.301442 169.652386 14.578525 C 169.757285 14.842414 169.822848 15.159081 169.822848 15.528526 C 169.822848 16.25422 169.613048 16.795192 169.219673 17.151442 C 168.826299 17.507692 168.367361 17.67922 167.816637 17.67922 C 167.2528 17.67922 166.767637 17.415331 166.374263 17.072276 C 166.007113 16.716026 165.823538 16.175053 165.823538 15.488942 C 165.823538 14.776442 166.020225 14.23547 166.387375 13.905609 Z M 166.400488 13.905609 " stroke="#000000" stroke-width="2.129" stroke-opacity="1" stroke-miterlimit="4"/></g><path fill="#000000" d="M 56.394531 22.015625 C 56.175781 22.015625 55.976562 21.992188 55.800781 21.941406 C 55.621094 21.894531 55.460938 21.832031 55.316406 21.753906 C 55.171875 21.671875 55.046875 21.578125 54.933594 21.472656 C 54.828125 21.367188 54.734375 21.253906 54.644531 21.132812 L 54.578125 21.132812 L 54.613281 21.492188 L 54.632812 21.789062 L 54.644531 22.027344 L 54.644531 24.625 L 53.628906 24.625 L 53.628906 15.820312 L 54.457031 15.820312 L 54.601562 16.640625 L 54.644531 16.640625 C 54.730469 16.511719 54.828125 16.390625 54.933594 16.28125 C 55.046875 16.164062 55.167969 16.066406 55.308594 15.988281 C 55.453125 15.902344 55.617188 15.835938 55.792969 15.785156 C 55.972656 15.734375 56.171875 15.710938 56.394531 15.710938 C 56.746094 15.710938 57.0625 15.777344 57.347656 15.910156 C 57.644531 16.046875 57.886719 16.246094 58.078125 16.507812 C 58.285156 16.769531 58.441406 17.097656 58.554688 17.488281 C 58.671875 17.875 58.722656 18.332031 58.722656 18.851562 C 58.722656 19.371094 58.667969 19.828125 58.554688 20.222656 C 58.445312 20.617188 58.285156 20.945312 58.078125 21.210938 C 57.878906 21.476562 57.632812 21.675781 57.347656 21.8125 C 57.0625 21.949219 56.675781 22.015625 56.324219 22.015625 M 56.199219 16.546875 C 55.917969 16.546875 55.679688 16.589844 55.480469 16.671875 C 55.285156 16.757812 55.128906 16.886719 55.007812 17.0625 C 54.886719 17.234375 54.800781 17.449219 54.738281 17.710938 C 54.683594 17.96875 54.652344 18.273438 54.644531 18.625 L 54.644531 18.851562 C 54.644531 19.226562 54.667969 19.558594 54.71875 19.851562 C 54.769531 20.136719 54.855469 20.382812 54.972656 20.582031 C 55.09375 20.777344 55.253906 20.925781 55.457031 21.03125 C 55.660156 21.128906 55.910156 21.179688 56.210938 21.179688 C 56.714844 21.179688 57.082031 20.980469 57.316406 20.578125 C 57.554688 20.171875 57.671875 19.59375 57.671875 18.84375 C 57.671875 18.074219 57.554688 17.5 57.316406 17.121094 C 57.082031 16.738281 56.710938 16.546875 56.199219 16.546875 M 62.105469 21.1875 C 62.171875 21.1875 62.246094 21.183594 62.328125 21.175781 L 62.574219 21.148438 L 62.78125 21.109375 L 62.933594 21.070312 L 62.933594 21.835938 C 62.882812 21.859375 62.824219 21.878906 62.746094 21.902344 C 62.671875 21.925781 62.589844 21.941406 62.503906 21.957031 C 62.410156 21.976562 62.316406 21.988281 62.222656 21.996094 C 62.128906 22.007812 62.035156 22.015625 61.941406 22.011719 C 61.722656 22.015625 61.507812 21.984375 61.296875 21.925781 C 61.101562 21.867188 60.929688 21.765625 60.785156 21.621094 C 60.644531 21.476562 60.53125 21.28125 60.449219 21.039062 C 60.371094 20.789062 60.328125 20.480469 60.328125 20.109375 L 60.328125 16.578125 L 59.464844 16.578125 L 59.464844 16.128906 L 60.328125 15.699219 L 60.761719 14.421875 L 61.347656 14.421875 L 61.347656 15.820312 L 62.886719 15.820312 L 62.886719 16.578125 L 61.347656 16.578125 L 61.347656 20.109375 C 61.347656 20.460938 61.40625 20.734375 61.519531 20.917969 C 61.640625 21.09375 61.832031 21.1875 62.101562 21.1875 " fill-opacity="1" fill-rule="nonzero"/><g clip-path="url(#472c3cd3e3)"><path stroke-linecap="butt" transform="matrix(0.297903, 0, 0, 0.296053, 1.24521, 9.574614)" fill="none" stroke-linejoin="miter" d="M 185.125126 42.022971 C 184.390826 42.022971 183.722089 41.943804 183.132027 41.772277 C 182.528853 41.613943 181.99124 41.402832 181.506078 41.138943 C 181.020916 40.86186 180.601316 40.545193 180.221054 40.188943 C 179.867017 39.832693 179.552317 39.450054 179.25073 39.041026 L 179.027817 39.041026 L 179.14583 40.254915 L 179.211392 41.257693 L 179.25073 42.062554 L 179.25073 50.83686 L 175.841482 50.83686 L 175.841482 21.096581 L 178.62133 21.096581 L 179.106492 23.867415 L 179.25073 23.867415 C 179.539204 23.431998 179.867017 23.02297 180.221054 22.653526 C 180.601316 22.257692 181.007804 21.927831 181.479853 21.663942 C 181.965015 21.373665 182.51574 21.149359 183.105802 20.977831 C 183.708977 20.806304 184.377714 20.727137 185.125126 20.727137 C 186.30525 20.727137 187.367362 20.951442 188.324574 21.400054 C 189.321123 21.861859 190.134098 22.534776 190.77661 23.418804 C 191.471572 24.302831 191.996072 25.411165 192.376334 26.730609 C 192.769709 28.036859 192.940171 29.580609 192.940171 31.335471 C 192.940171 33.090332 192.756596 34.634082 192.376334 35.966721 C 192.009184 37.29936 191.471572 38.407693 190.77661 39.304915 C 190.107873 40.202138 189.281786 40.875054 188.324574 41.33686 C 187.367362 41.798665 186.069225 42.022971 184.889101 42.022971 M 184.469501 23.550748 C 183.525402 23.550748 182.72554 23.695887 182.056803 23.97297 C 181.401178 24.263248 180.876679 24.698665 180.470191 25.292415 C 180.063704 25.87297 179.775229 26.598665 179.565429 27.482693 C 179.381855 28.353526 179.276955 29.382693 179.25073 30.570193 L 179.25073 31.335471 C 179.25073 32.602137 179.329405 33.723665 179.499867 34.713249 C 179.670329 35.676443 179.958804 36.507693 180.352179 37.18061 C 180.758666 37.840332 181.296278 38.341721 181.978128 38.697971 C 182.659978 39.027832 183.499177 39.19936 184.508839 39.19936 C 186.20035 39.19936 187.432925 38.526443 188.219674 37.167415 C 189.019536 35.795193 189.412911 33.842415 189.412911 31.309082 C 189.412911 28.709776 189.019536 26.770193 188.219674 25.490331 C 187.432925 24.197276 186.187238 23.550748 184.469501 23.550748 M 204.295589 39.225749 C 204.518502 39.225749 204.767639 39.212554 205.043001 39.186165 L 205.869088 39.093804 L 206.56405 38.96186 L 207.075437 38.829915 L 207.075437 41.416027 C 206.904975 41.495193 206.708288 41.561165 206.446038 41.640332 C 206.196901 41.719499 205.921538 41.772277 205.633063 41.825054 C 205.318364 41.891027 205.003664 41.93061 204.688964 41.956999 C 204.374264 41.996582 204.059564 42.022971 203.744865 42.009777 C 203.010565 42.022971 202.289378 41.917415 201.581303 41.719499 C 200.925679 41.521582 200.348729 41.178527 199.863567 40.690332 C 199.391517 40.202138 199.011255 39.542415 198.735893 38.72436 C 198.473643 37.879915 198.329405 36.837554 198.329405 35.584082 L 198.329405 23.656304 L 195.431545 23.656304 L 195.431545 22.138942 L 198.329405 20.687553 L 199.784892 16.37297 L 201.751766 16.37297 L 201.751766 21.096581 L 206.918088 21.096581 L 206.918088 23.656304 L 201.751766 23.656304 L 201.751766 35.584082 C 201.751766 36.771582 201.948453 37.695193 202.328715 38.315332 C 202.735203 38.909082 203.377715 39.225749 204.282477 39.225749 " stroke="#000000" stroke-width="2.129" stroke-opacity="1" stroke-miterlimit="4"/></g></svg>