<svg xmlns="http://www.w3.org/2000/svg" xmlns:xlink="http://www.w3.org/1999/xlink" width="100" zoomAndPan="magnify" viewBox="0 0 75 37.5" height="50" preserveAspectRatio="xMidYMid meet" version="1.0"><defs><clipPath id="94278cb8e0"><path d="M 9 5.640625 L 16 5.640625 L 16 29 L 9 29 Z M 9 5.640625 " clip-rule="nonzero"/></clipPath><clipPath id="dcaf80ef62"><path d="M 4.195312 5.640625 L 11 5.640625 L 11 29 L 4.195312 29 Z M 4.195312 5.640625 " clip-rule="nonzero"/></clipPath><clipPath id="03c829fdbb"><path d="M 9 25 L 11 25 L 11 31.542969 L 9 31.542969 Z M 9 25 " clip-rule="nonzero"/></clipPath><clipPath id="be0d1ab310"><path d="M 55 17 L 70.804688 17 L 70.804688 26 L 55 26 Z M 55 17 " clip-rule="nonzero"/></clipPath></defs><g clip-path="url(#94278cb8e0)"><path fill="#599636" d="M 9.953125 5.738281 L 10.640625 7.035156 C 10.789062 7.269531 10.960938 7.484375 11.160156 7.683594 C 11.734375 8.261719 12.277344 8.867188 12.769531 9.515625 C 13.929688 11.054688 14.714844 12.761719 15.273438 14.609375 C 15.609375 15.738281 15.792969 16.894531 15.808594 18.066406 C 15.863281 21.5625 14.671875 24.566406 12.265625 27.0625 C 11.875 27.460938 11.453125 27.820312 11.003906 28.148438 C 10.765625 28.148438 10.652344 27.960938 10.554688 27.796875 C 10.367188 27.480469 10.261719 27.132812 10.207031 26.78125 C 10.121094 26.359375 10.066406 25.9375 10.09375 25.496094 L 10.09375 25.300781 C 10.078125 25.257812 9.871094 5.835938 9.953125 5.738281 Z M 9.953125 5.738281 " fill-opacity="1" fill-rule="nonzero"/></g><g clip-path="url(#dcaf80ef62)"><path fill="#6cac48" d="M 9.953125 5.695312 C 9.925781 5.636719 9.898438 5.679688 9.871094 5.707031 C 9.882812 5.992188 9.785156 6.246094 9.632812 6.484375 C 9.464844 6.726562 9.238281 6.90625 9.015625 7.105469 C 7.769531 8.191406 6.789062 9.503906 6.003906 10.96875 C 4.96875 12.945312 4.421875 15.058594 4.269531 17.289062 C 4.199219 18.09375 4.519531 20.929688 4.773438 21.746094 C 5.457031 23.917969 6.691406 25.738281 8.292969 27.316406 C 8.6875 27.695312 9.105469 28.050781 9.542969 28.390625 C 9.667969 28.390625 9.679688 28.277344 9.710938 28.191406 C 9.765625 28.011719 9.804688 27.828125 9.835938 27.640625 C 9.960938 26.9375 10.03125 26.230469 10.113281 25.523438 L 9.960938 5.695312 Z M 9.953125 5.695312 " fill-opacity="1" fill-rule="nonzero"/></g><g clip-path="url(#03c829fdbb)"><path fill="#c2bfbf" d="M 10.640625 29.011719 C 10.671875 28.6875 10.832031 28.417969 10.992188 28.148438 C 10.824219 28.082031 10.699219 27.9375 10.601562 27.78125 C 10.515625 27.640625 10.445312 27.464844 10.390625 27.316406 C 10.195312 26.726562 10.152344 26.105469 10.097656 25.496094 L 10.097656 25.128906 C 10.027344 25.1875 10.011719 25.664062 10.011719 25.738281 C 9.96875 26.386719 9.886719 27.019531 9.761719 27.640625 C 9.71875 27.894531 9.691406 28.148438 9.535156 28.375 C 9.535156 28.402344 9.535156 28.429688 9.550781 28.472656 C 9.800781 29.21875 9.871094 29.980469 9.914062 30.757812 L 9.914062 31.039062 C 9.914062 31.378906 9.902344 31.308594 10.179688 31.421875 C 10.292969 31.460938 10.417969 31.476562 10.53125 31.5625 C 10.613281 31.5625 10.628906 31.492188 10.628906 31.433594 L 10.585938 30.96875 L 10.585938 29.671875 C 10.574219 29.445312 10.613281 29.21875 10.644531 29.007812 Z M 10.640625 29.011719 " fill-opacity="1" fill-rule="nonzero"/></g><path fill="#47474a" d="M 21.277344 23.109375 L 21.277344 24.453125 C 21.273438 24.507812 21.277344 24.558594 21.285156 24.613281 C 21.300781 24.773438 21.398438 24.867188 21.542969 24.914062 C 21.675781 24.949219 21.808594 24.976562 21.945312 24.992188 C 22.023438 25.003906 22.050781 25.039062 22.058594 25.121094 C 22.070312 25.421875 22.042969 25.457031 21.753906 25.441406 C 21.078125 25.40625 20.402344 25.398438 19.726562 25.441406 L 19.664062 25.441406 C 19.453125 25.449219 19.433594 25.433594 19.433594 25.21875 C 19.433594 25.183594 19.441406 25.140625 19.441406 25.105469 C 19.441406 25.039062 19.488281 25.007812 19.546875 25.007812 C 19.691406 24.988281 19.820312 24.953125 19.953125 24.929688 C 20.136719 24.882812 20.242188 24.769531 20.261719 24.582031 C 20.285156 24.378906 20.285156 24.167969 20.285156 23.964844 L 20.292969 21.597656 C 20.300781 21.441406 20.238281 21.332031 20.101562 21.257812 C 19.941406 21.171875 19.777344 21.101562 19.601562 21.046875 C 19.546875 21.03125 19.496094 21.023438 19.453125 20.996094 C 19.324219 20.933594 19.320312 20.816406 19.441406 20.746094 C 19.488281 20.722656 19.539062 20.703125 19.59375 20.695312 C 20.125 20.613281 20.648438 20.480469 21.152344 20.296875 C 21.257812 20.261719 21.285156 20.269531 21.296875 20.375 C 21.304688 20.441406 21.296875 20.519531 21.285156 20.578125 C 21.269531 20.695312 21.269531 20.808594 21.269531 20.914062 C 21.269531 20.957031 21.277344 21.003906 21.320312 21.03125 C 21.363281 21.054688 21.410156 21.03125 21.449219 21.003906 C 21.632812 20.863281 21.820312 20.730469 22.019531 20.617188 C 22.308594 20.457031 22.617188 20.316406 22.949219 20.269531 C 23.355469 20.21875 23.707031 20.324219 24.011719 20.589844 C 24.140625 20.703125 24.25 20.835938 24.347656 20.976562 C 24.433594 21.109375 24.441406 21.109375 24.558594 21.023438 C 24.890625 20.773438 25.242188 20.554688 25.617188 20.394531 C 26.015625 20.226562 26.417969 20.199219 26.820312 20.34375 C 27.234375 20.492188 27.515625 20.785156 27.679688 21.179688 C 27.824219 21.5 27.882812 21.828125 27.882812 22.171875 L 27.882812 24.539062 C 27.882812 24.699219 27.949219 24.796875 28.101562 24.875 C 28.269531 24.941406 28.453125 24.972656 28.628906 25.007812 C 28.742188 25.035156 28.742188 25.035156 28.742188 25.152344 C 28.726562 25.441406 28.699219 25.460938 28.417969 25.441406 C 27.714844 25.402344 27.007812 25.402344 26.304688 25.441406 C 26.164062 25.449219 26.164062 25.449219 26.15625 25.308594 L 26.15625 25.265625 C 26.144531 25.027344 26.144531 25.027344 26.375 24.972656 L 26.601562 24.910156 C 26.785156 24.867188 26.875 24.753906 26.875 24.566406 L 26.902344 23.902344 L 26.882812 22.171875 C 26.875 22.015625 26.84375 21.867188 26.785156 21.722656 C 26.566406 21.183594 26.085938 20.988281 25.621094 21.042969 C 25.269531 21.078125 24.960938 21.21875 24.671875 21.421875 C 24.609375 21.464844 24.566406 21.519531 24.574219 21.605469 C 24.65625 22.171875 24.601562 22.738281 24.609375 23.304688 L 24.609375 24.53125 C 24.609375 24.753906 24.699219 24.859375 24.910156 24.914062 L 25.3125 25 C 25.375 25.011719 25.410156 25.039062 25.410156 25.109375 L 25.410156 25.171875 C 25.402344 25.421875 25.382812 25.429688 25.136719 25.429688 C 24.4375 25.394531 23.734375 25.402344 23.039062 25.429688 C 22.804688 25.4375 22.785156 25.410156 22.796875 25.167969 C 22.804688 25.027344 22.820312 25.019531 22.953125 24.992188 L 23.242188 24.941406 C 23.5 24.886719 23.59375 24.789062 23.609375 24.515625 L 23.636719 23.921875 L 23.617188 22.148438 C 23.601562 21.925781 23.554688 21.714844 23.433594 21.511719 C 23.257812 21.183594 22.984375 21.015625 22.609375 20.996094 C 22.230469 20.972656 21.898438 21.113281 21.582031 21.289062 C 21.363281 21.417969 21.265625 21.570312 21.285156 21.828125 L 21.285156 23.117188 Z M 37.808594 23.164062 L 37.808594 24.410156 C 37.808594 24.5 37.816406 24.585938 37.824219 24.675781 C 37.835938 24.8125 37.90625 24.894531 38.035156 24.921875 C 38.1875 24.96875 38.34375 24.996094 38.5 25.003906 C 38.589844 25.011719 38.605469 25.046875 38.617188 25.117188 L 38.617188 25.179688 C 38.605469 25.488281 38.570312 25.523438 38.273438 25.507812 C 37.605469 25.464844 36.9375 25.472656 36.273438 25.507812 L 36.015625 25.515625 C 35.960938 25.515625 35.953125 25.492188 35.9375 25.453125 C 35.910156 25.332031 35.910156 25.207031 35.9375 25.082031 C 35.945312 25.03125 35.980469 25.019531 36.03125 25.003906 C 36.160156 24.984375 36.269531 24.960938 36.390625 24.9375 C 36.613281 24.886719 36.691406 24.796875 36.699219 24.566406 L 36.726562 23.824219 L 36.726562 21.652344 C 36.726562 21.492188 36.664062 21.394531 36.523438 21.324219 C 36.367188 21.234375 36.199219 21.171875 36.023438 21.113281 C 35.96875 21.09375 35.917969 21.074219 35.875 21.050781 C 35.757812 20.96875 35.746094 20.855469 35.855469 20.765625 C 35.90625 20.726562 35.964844 20.699219 36.03125 20.695312 C 36.59375 20.605469 37.136719 20.484375 37.664062 20.269531 C 37.726562 20.246094 37.75 20.261719 37.777344 20.316406 C 37.804688 20.367188 37.8125 20.429688 37.804688 20.492188 L 37.777344 20.90625 C 37.777344 20.960938 37.753906 21.035156 37.796875 21.058594 C 37.847656 21.09375 37.882812 21.011719 37.925781 20.992188 C 38.1875 20.773438 38.472656 20.589844 38.777344 20.445312 C 39.050781 20.316406 39.332031 20.234375 39.648438 20.25 C 40.234375 20.285156 40.65625 20.585938 40.929688 21.109375 C 41.070312 21.382812 41.128906 21.683594 41.15625 21.992188 L 41.183594 22.640625 L 41.191406 24.59375 C 41.199219 24.742188 41.253906 24.839844 41.402344 24.894531 C 41.554688 24.945312 41.714844 24.984375 41.875 25.007812 C 42.015625 25.027344 42.023438 25.050781 42.035156 25.183594 L 42.035156 25.230469 C 42.015625 25.53125 41.996094 25.539062 41.699219 25.519531 C 41.042969 25.484375 40.390625 25.484375 39.734375 25.519531 C 39.644531 25.527344 39.558594 25.519531 39.476562 25.527344 C 39.425781 25.527344 39.390625 25.519531 39.378906 25.464844 C 39.363281 25.351562 39.34375 25.238281 39.371094 25.113281 C 39.378906 25.058594 39.40625 25.035156 39.46875 25.023438 L 39.871094 24.960938 C 40.015625 24.925781 40.09375 24.832031 40.109375 24.699219 L 40.128906 24.453125 L 40.117188 22.605469 C 40.117188 22.394531 40.109375 22.183594 40.066406 21.96875 C 39.960938 21.515625 39.617188 21.195312 39.152344 21.148438 C 38.75 21.105469 38.382812 21.210938 38.046875 21.429688 C 37.882812 21.539062 37.8125 21.6875 37.8125 21.871094 L 37.8125 23.207031 C 37.8125 23.183594 37.8125 23.183594 37.820312 23.183594 Z M 37.808594 23.164062 " fill-opacity="1" fill-rule="nonzero"/><g clip-path="url(#be0d1ab310)"><path fill="#c2bfbf" d="M 63.507812 20.664062 C 63.410156 20.015625 63.171875 19.441406 62.761719 18.9375 C 62.394531 18.488281 61.945312 18.152344 61.410156 17.929688 C 60.855469 17.703125 60.269531 17.632812 59.671875 17.613281 C 59.425781 17.605469 56.074219 17.65625 55.828125 17.613281 C 55.765625 17.605469 55.722656 17.621094 55.6875 17.675781 C 55.644531 17.738281 55.597656 17.808594 55.574219 17.878906 C 55.46875 18.117188 55.46875 18.101562 55.722656 18.132812 C 55.933594 18.171875 56.132812 18.1875 56.335938 18.25 C 56.519531 18.3125 56.652344 18.417969 56.695312 18.621094 C 56.714844 18.71875 56.730469 21.828125 56.730469 23.277344 L 56.695312 24.3125 C 56.6875 24.394531 56.679688 24.472656 56.652344 24.542969 C 56.617188 24.648438 56.554688 24.738281 56.449219 24.78125 C 56.332031 24.835938 56.210938 24.871094 56.082031 24.878906 C 55.84375 24.90625 55.808594 24.914062 55.730469 25.179688 L 55.703125 25.277344 C 55.6875 25.390625 55.695312 25.410156 55.808594 25.410156 L 58.433594 25.4375 L 59.460938 25.417969 L 60.171875 25.328125 C 60.980469 25.179688 61.699219 24.84375 62.3125 24.304688 C 62.667969 23.988281 62.949219 23.617188 63.15625 23.191406 C 63.402344 22.695312 63.507812 22.15625 63.53125 21.609375 C 63.578125 21.300781 63.558594 20.980469 63.507812 20.664062 Z M 62.234375 21.917969 C 62.199219 22.484375 62.085938 23.03125 61.796875 23.527344 C 61.425781 24.171875 60.902344 24.621094 60.171875 24.78125 C 59.855469 24.84375 59.539062 24.878906 59.210938 24.832031 C 58.972656 24.808594 58.746094 24.78125 58.523438 24.699219 C 58.128906 24.558594 57.988281 24.3125 57.980469 23.925781 L 57.972656 18.597656 C 57.972656 18.277344 58.113281 18.207031 58.339844 18.199219 C 58.683594 18.171875 59.035156 18.179688 59.375 18.214844 C 59.742188 18.25 60.097656 18.335938 60.4375 18.472656 C 60.691406 18.582031 60.925781 18.726562 61.132812 18.90625 C 61.605469 19.316406 61.921875 19.824219 62.09375 20.425781 C 62.238281 20.914062 62.261719 21.410156 62.238281 21.902344 Z M 70.800781 22.785156 C 70.800781 22.730469 70.800781 22.6875 70.792969 22.632812 C 70.710938 22.148438 70.457031 21.777344 70.0625 21.492188 C 69.808594 21.308594 69.519531 21.183594 69.222656 21.097656 C 69.167969 21.078125 69.125 21.058594 69.070312 21.050781 C 69.082031 21.007812 69.105469 21 69.132812 20.988281 C 69.308594 20.902344 69.476562 20.804688 69.625 20.671875 C 69.898438 20.441406 70.074219 20.160156 70.167969 19.8125 C 70.222656 19.628906 70.222656 19.441406 70.203125 19.25 C 70.171875 18.761719 69.960938 18.378906 69.5625 18.097656 C 69.160156 17.796875 68.683594 17.675781 68.195312 17.664062 C 67.246094 17.648438 66.289062 17.664062 65.34375 17.664062 C 65.070312 17.664062 64.800781 17.683594 64.519531 17.640625 C 64.464844 17.632812 64.390625 17.613281 64.351562 17.675781 C 64.285156 17.789062 64.210938 17.90625 64.183594 18.039062 C 64.175781 18.101562 64.191406 18.132812 64.261719 18.144531 L 64.867188 18.230469 C 65.105469 18.269531 65.273438 18.402344 65.289062 18.613281 C 65.308594 18.757812 65.316406 18.90625 65.316406 19.054688 L 65.296875 20.707031 L 65.289062 23.976562 C 65.289062 24.171875 65.261719 24.355469 65.226562 24.550781 C 65.207031 24.6875 65.132812 24.777344 65 24.816406 C 64.824219 24.867188 64.65625 24.921875 64.472656 24.921875 C 64.355469 24.910156 64.28125 24.960938 64.246094 25.070312 C 64.210938 25.152344 64.179688 25.242188 64.167969 25.320312 C 64.148438 25.425781 64.175781 25.460938 64.28125 25.449219 C 64.359375 25.441406 67.253906 25.511719 67.800781 25.457031 C 68.125 25.421875 68.441406 25.378906 68.765625 25.28125 C 69.316406 25.105469 69.828125 24.847656 70.230469 24.414062 C 70.5625 24.0625 70.757812 23.636719 70.773438 23.140625 C 70.800781 23.027344 70.800781 22.914062 70.800781 22.789062 Z M 66.542969 19.164062 L 66.570312 18.457031 C 66.570312 18.324219 66.621094 18.261719 66.753906 18.234375 C 66.964844 18.191406 67.175781 18.207031 67.386719 18.21875 C 67.597656 18.234375 67.796875 18.261719 68.007812 18.324219 C 68.394531 18.4375 68.695312 18.660156 68.871094 19.03125 C 68.949219 19.199219 68.992188 19.378906 68.992188 19.570312 C 69 19.816406 68.984375 20.054688 68.886719 20.292969 C 68.738281 20.621094 68.5 20.832031 68.160156 20.894531 C 67.816406 20.957031 66.84375 20.929688 66.695312 20.929688 C 66.5625 20.929688 66.550781 20.914062 66.550781 20.78125 L 66.550781 19.949219 C 66.53125 19.6875 66.527344 19.429688 66.542969 19.171875 Z M 69.394531 23.917969 C 69.246094 24.316406 68.972656 24.589844 68.589844 24.738281 C 68.378906 24.816406 68.167969 24.867188 67.945312 24.855469 C 67.675781 24.84375 67.402344 24.855469 67.128906 24.800781 C 66.761719 24.722656 66.59375 24.367188 66.570312 24.109375 C 66.523438 23.660156 66.550781 23.199219 66.542969 22.863281 L 66.542969 21.699219 C 66.542969 21.554688 66.558594 21.511719 66.710938 21.511719 L 67.535156 21.523438 L 68.097656 21.585938 C 68.492188 21.675781 68.851562 21.824219 69.132812 22.132812 C 69.359375 22.382812 69.484375 22.683594 69.511719 23.007812 C 69.535156 23.316406 69.519531 23.617188 69.40625 23.910156 Z M 69.394531 23.917969 " fill-opacity="1" fill-rule="nonzero"/></g><path fill="#47474a" d="M 47.101562 21.253906 L 47.328125 21.289062 C 47.574219 21.300781 47.863281 21.210938 47.953125 20.867188 C 48 20.699219 48 20.53125 47.953125 20.363281 C 47.898438 20.363281 47.875 20.40625 47.847656 20.421875 C 47.714844 20.53125 47.566406 20.589844 47.410156 20.609375 C 47.09375 20.644531 46.777344 20.625 46.46875 20.511719 L 46.039062 20.363281 C 45.738281 20.261719 45.425781 20.222656 45.109375 20.238281 C 44.660156 20.273438 44.238281 20.425781 43.84375 20.636719 C 43.421875 20.867188 43.125 21.210938 42.984375 21.679688 C 42.90625 21.953125 42.894531 22.234375 42.929688 22.519531 C 43.019531 23.164062 43.351562 23.617188 43.949219 23.855469 C 43.984375 23.863281 44.011719 23.878906 44.046875 23.890625 C 44.125 23.933594 44.132812 23.980469 44.0625 24.039062 L 43.84375 24.191406 L 43.316406 24.515625 C 43.183594 24.597656 43.167969 24.660156 43.210938 24.800781 C 43.265625 24.96875 43.359375 25.109375 43.492188 25.222656 C 43.613281 25.328125 43.746094 25.410156 43.894531 25.472656 C 43.992188 25.515625 43.992188 25.535156 43.90625 25.613281 L 43.402344 25.976562 C 43.238281 26.105469 43.070312 26.234375 42.929688 26.402344 C 42.71875 26.628906 42.648438 26.894531 42.71875 27.195312 C 42.785156 27.511719 42.9375 27.777344 43.175781 27.992188 C 43.40625 28.207031 43.675781 28.355469 43.984375 28.433594 C 44.472656 28.574219 44.984375 28.582031 45.484375 28.484375 C 46.203125 28.355469 46.832031 28.035156 47.324219 27.488281 C 47.667969 27.125 47.871094 26.703125 47.886719 26.195312 C 47.90625 25.890625 47.828125 25.617188 47.648438 25.375 C 47.46875 25.128906 47.234375 24.972656 46.941406 24.902344 L 46.464844 24.816406 L 45.019531 24.6875 C 44.859375 24.675781 44.703125 24.652344 44.570312 24.570312 C 44.402344 24.464844 44.359375 24.261719 44.464844 24.128906 C 44.542969 24.03125 44.640625 23.96875 44.765625 23.960938 L 45.042969 23.933594 C 45.613281 23.875 46.109375 23.648438 46.527344 23.253906 C 46.75 23.046875 46.898438 22.796875 46.976562 22.503906 C 47.082031 22.125 47.082031 21.726562 46.992188 21.339844 C 46.964844 21.242188 46.976562 21.234375 47.097656 21.25 Z M 44.949219 25.65625 C 45.003906 25.664062 45.054688 25.65625 45.109375 25.65625 C 45.476562 25.675781 45.855469 25.699219 46.214844 25.800781 C 46.332031 25.835938 46.445312 25.878906 46.554688 25.933594 C 46.90625 26.125 47.039062 26.460938 46.996094 26.824219 C 46.941406 27.222656 46.722656 27.503906 46.378906 27.691406 C 46.152344 27.820312 45.898438 27.875 45.632812 27.902344 C 45.539062 27.910156 45.449219 27.902344 45.355469 27.902344 C 45.046875 27.910156 44.75 27.878906 44.457031 27.753906 C 44.257812 27.671875 44.089844 27.558594 43.941406 27.398438 C 43.632812 27.089844 43.492188 26.523438 43.949219 26.0625 C 44.230469 25.804688 44.546875 25.621094 44.949219 25.65625 Z M 45.949219 22.898438 C 45.765625 23.367188 45.363281 23.507812 44.960938 23.445312 C 44.589844 23.394531 44.320312 23.191406 44.144531 22.855469 C 43.914062 22.402344 43.855469 21.9375 43.984375 21.449219 C 44.082031 21.085938 44.300781 20.8125 44.6875 20.75 C 45.179688 20.660156 45.652344 20.839844 45.898438 21.335938 C 46.027344 21.574219 46.082031 21.863281 46.082031 22.28125 C 46.074219 22.449219 46.039062 22.675781 45.953125 22.898438 Z M 34.894531 22.296875 C 34.816406 21.820312 34.640625 21.386719 34.316406 21.023438 C 33.832031 20.484375 33.21875 20.25 32.527344 20.246094 C 31.921875 20.238281 31.351562 20.414062 30.839844 20.734375 C 30.320312 21.046875 29.976562 21.496094 29.8125 22.085938 C 29.664062 22.597656 29.671875 23.121094 29.789062 23.640625 C 30.09375 25.039062 31.167969 25.636719 32.445312 25.550781 C 32.824219 25.523438 33.183594 25.398438 33.523438 25.230469 C 34.035156 24.992188 34.402344 24.613281 34.65625 24.109375 C 34.859375 23.695312 34.945312 23.25 34.9375 22.746094 Z M 33.648438 24.261719 C 33.585938 24.464844 33.472656 24.632812 33.308594 24.765625 C 33.144531 24.902344 32.957031 24.980469 32.746094 25.003906 C 32.359375 25.054688 32 24.957031 31.675781 24.726562 C 31.4375 24.550781 31.253906 24.332031 31.121094 24.066406 C 30.761719 23.324219 30.699219 22.546875 30.882812 21.75 C 30.945312 21.5 31.066406 21.285156 31.253906 21.105469 C 31.578125 20.804688 31.953125 20.734375 32.375 20.820312 C 32.78125 20.910156 33.085938 21.132812 33.339844 21.46875 C 33.59375 21.804688 33.707031 22.191406 33.777344 22.597656 C 33.8125 22.800781 33.8125 23.015625 33.820312 23.148438 C 33.820312 23.570312 33.785156 23.921875 33.65625 24.261719 Z M 54.066406 22.367188 C 54.003906 21.855469 53.8125 21.386719 53.453125 21 C 52.980469 20.476562 52.367188 20.257812 51.679688 20.246094 C 51.09375 20.238281 50.550781 20.40625 50.050781 20.699219 C 49.488281 21.035156 49.101562 21.511719 48.953125 22.15625 C 48.769531 22.882812 48.839844 23.585938 49.164062 24.261719 C 49.453125 24.878906 49.945312 25.277344 50.59375 25.453125 C 51.3125 25.648438 52 25.558594 52.664062 25.230469 C 53.242188 24.949219 53.65625 24.507812 53.894531 23.90625 C 54.035156 23.550781 54.085938 23.171875 54.09375 22.730469 C 54.105469 22.652344 54.085938 22.507812 54.070312 22.367188 Z M 52.855469 24.144531 C 52.714844 24.621094 52.417969 24.933594 51.917969 25.003906 C 51.550781 25.054688 51.199219 24.96875 50.882812 24.753906 C 50.609375 24.570312 50.417969 24.320312 50.277344 24.03125 C 50.121094 23.722656 50.03125 23.394531 49.996094 23.058594 C 49.945312 22.644531 49.945312 22.238281 50.039062 21.820312 C 50.058594 21.738281 50.085938 21.660156 50.121094 21.582031 C 50.367188 20.964844 50.910156 20.679688 51.550781 20.824219 C 51.980469 20.921875 52.304688 21.160156 52.550781 21.523438 C 52.789062 21.875 52.902344 22.265625 52.953125 22.6875 C 52.980469 22.855469 52.988281 23.03125 52.980469 23.179688 C 52.980469 23.523438 52.953125 23.84375 52.851562 24.152344 Z M 52.855469 24.144531 " fill-opacity="1" fill-rule="nonzero"/></svg>