<svg xmlns="http://www.w3.org/2000/svg" xmlns:xlink="http://www.w3.org/1999/xlink" width="100" zoomAndPan="magnify" viewBox="0 0 75 37.5" height="50" preserveAspectRatio="xMidYMid meet" version="1.0"><defs><clipPath id="a3435296b8"><path d="M 12.585938 3.460938 L 62.171875 3.460938 L 62.171875 33.804688 L 12.585938 33.804688 Z M 12.585938 3.460938 " clip-rule="nonzero"/></clipPath></defs><g clip-path="url(#a3435296b8)"><path fill="#000000" d="M 24.285156 11.378906 L 33.636719 11.378906 L 33.636719 12.132812 L 25.140625 12.132812 L 25.140625 17.804688 L 33.132812 17.804688 L 33.132812 18.558594 L 25.140625 18.558594 L 25.140625 24.78125 L 33.734375 24.78125 L 33.734375 25.535156 L 24.285156 25.535156 Z M 34.476562 11.378906 L 35.46875 11.378906 L 39.875 17.605469 L 44.375 11.378906 L 50.496094 3.472656 L 40.4375 18.261719 L 45.621094 25.535156 L 44.589844 25.535156 L 39.875 18.914062 L 35.136719 25.535156 L 34.125 25.535156 L 39.347656 18.261719 Z M 45.992188 12.132812 L 45.992188 11.378906 L 56.652344 11.378906 L 56.652344 12.132812 L 51.738281 12.132812 L 51.738281 25.535156 L 50.882812 25.535156 L 50.882812 12.132812 Z M 12.585938 11.378906 L 13.65625 11.378906 L 28.433594 33.792969 L 22.328125 25.539062 L 13.480469 12.449219 L 13.441406 25.539062 L 12.585938 25.539062 Z M 56.5625 24.554688 C 56.390625 24.554688 56.257812 24.417969 56.257812 24.242188 C 56.257812 24.0625 56.390625 23.925781 56.5625 23.925781 C 56.742188 23.925781 56.871094 24.0625 56.871094 24.242188 C 56.871094 24.417969 56.742188 24.554688 56.5625 24.554688 Z M 57.40625 23.726562 L 57.863281 23.726562 C 57.871094 23.976562 58.054688 24.148438 58.320312 24.148438 C 58.617188 24.148438 58.785156 23.964844 58.785156 23.625 L 58.785156 21.464844 L 59.253906 21.464844 L 59.253906 23.625 C 59.253906 24.242188 58.902344 24.59375 58.324219 24.59375 C 57.78125 24.59375 57.40625 24.25 57.40625 23.726562 Z M 59.863281 23.699219 L 60.328125 23.699219 C 60.367188 23.988281 60.648438 24.171875 61.050781 24.171875 C 61.425781 24.171875 61.699219 23.976562 61.699219 23.707031 C 61.699219 23.472656 61.523438 23.332031 61.125 23.238281 L 60.738281 23.140625 C 60.195312 23.011719 59.945312 22.746094 59.945312 22.296875 C 59.945312 21.753906 60.382812 21.394531 61.039062 21.394531 C 61.652344 21.394531 62.097656 21.753906 62.125 22.269531 L 61.671875 22.269531 C 61.625 21.988281 61.382812 21.8125 61.035156 21.8125 C 60.664062 21.8125 60.417969 21.992188 60.417969 22.265625 C 60.417969 22.484375 60.578125 22.609375 60.96875 22.703125 L 61.300781 22.785156 C 61.917969 22.929688 62.171875 23.183594 62.171875 23.644531 C 62.171875 24.226562 61.726562 24.59375 61.015625 24.59375 C 60.347656 24.59375 59.898438 24.246094 59.863281 23.699219 Z M 59.863281 23.699219 " fill-opacity="1" fill-rule="nonzero"/></g></svg>