<svg xmlns="http://www.w3.org/2000/svg" xmlns:xlink="http://www.w3.org/1999/xlink" width="100" zoomAndPan="magnify" viewBox="0 0 75 37.5" height="50" preserveAspectRatio="xMidYMid meet" version="1.0"><defs><clipPath id="5f399aab28"><path d="M 60 15 L 70.804688 15 L 70.804688 28 L 60 28 Z M 60 15 " clip-rule="nonzero"/></clipPath><clipPath id="370ebe5001"><path d="M 4.195312 9 L 57 9 L 57 28 L 4.195312 28 Z M 4.195312 9 " clip-rule="nonzero"/></clipPath></defs><g clip-path="url(#5f399aab28)"><path fill="#83cd29" d="M 65.476562 15.777344 C 65.3125 15.777344 65.15625 15.8125 65.015625 15.890625 L 60.601562 18.457031 C 60.3125 18.625 60.140625 18.9375 60.140625 19.269531 L 60.140625 24.390625 C 60.140625 24.726562 60.3125 25.039062 60.601562 25.203125 L 61.753906 25.871094 C 62.3125 26.148438 62.519531 26.144531 62.773438 26.144531 C 63.605469 26.144531 64.078125 25.640625 64.078125 24.757812 L 64.078125 19.703125 C 64.078125 19.632812 64.015625 19.582031 63.945312 19.582031 L 63.394531 19.582031 C 63.324219 19.582031 63.261719 19.632812 63.261719 19.703125 L 63.261719 24.761719 C 63.261719 25.152344 62.859375 25.542969 62.203125 25.214844 L 61.003906 24.507812 C 60.960938 24.484375 60.929688 24.441406 60.929688 24.394531 L 60.929688 19.269531 C 60.929688 19.222656 60.960938 19.171875 61.003906 19.148438 L 65.410156 16.589844 C 65.453125 16.566406 65.5 16.566406 65.542969 16.589844 L 69.949219 19.148438 C 69.992188 19.171875 70.023438 19.21875 70.023438 19.269531 L 70.023438 24.394531 C 70.023438 24.441406 70 24.492188 69.960938 24.515625 L 65.542969 27.074219 C 65.503906 27.09375 65.453125 27.09375 65.410156 27.074219 L 64.277344 26.394531 C 64.242188 26.375 64.195312 26.375 64.164062 26.394531 C 63.851562 26.570312 63.792969 26.59375 63.5 26.695312 C 63.425781 26.71875 63.316406 26.761719 63.535156 26.882812 L 65.019531 27.761719 C 65.160156 27.84375 65.316406 27.886719 65.476562 27.886719 C 65.640625 27.886719 65.796875 27.84375 65.9375 27.761719 L 70.351562 25.207031 C 70.640625 25.039062 70.8125 24.726562 70.8125 24.394531 L 70.8125 19.273438 C 70.8125 18.9375 70.640625 18.625 70.351562 18.460938 L 65.9375 15.894531 C 65.796875 15.816406 65.640625 15.78125 65.476562 15.78125 Z M 66.65625 19.441406 C 65.398438 19.441406 64.652344 19.976562 64.652344 20.875 C 64.652344 21.84375 65.394531 22.113281 66.601562 22.230469 C 68.046875 22.375 68.15625 22.585938 68.15625 22.875 C 68.15625 23.371094 67.765625 23.582031 66.835938 23.582031 C 65.667969 23.582031 65.410156 23.289062 65.324219 22.703125 C 65.316406 22.640625 65.269531 22.589844 65.203125 22.589844 L 64.628906 22.589844 C 64.546875 22.589844 64.5 22.636719 64.5 22.722656 C 64.5 23.46875 64.902344 24.351562 66.835938 24.351562 C 68.230469 24.351562 69.039062 23.800781 69.039062 22.835938 C 69.039062 21.878906 68.386719 21.617188 67.03125 21.4375 C 65.664062 21.253906 65.53125 21.167969 65.53125 20.84375 C 65.53125 20.578125 65.640625 20.222656 66.65625 20.222656 C 67.5625 20.222656 67.898438 20.417969 68.035156 21.03125 C 68.046875 21.089844 68.097656 21.136719 68.15625 21.136719 L 68.730469 21.136719 C 68.765625 21.136719 68.800781 21.117188 68.824219 21.089844 C 68.847656 21.0625 68.863281 21.03125 68.859375 20.996094 C 68.773438 19.9375 68.070312 19.4375 66.65625 19.4375 Z M 66.65625 19.441406 " fill-opacity="1" fill-rule="nonzero"/></g><g clip-path="url(#370ebe5001)"><path fill="#404137" d="M 39.511719 9.0625 C 39.460938 9.0625 39.414062 9.078125 39.371094 9.101562 C 39.277344 9.15625 39.230469 9.238281 39.230469 9.347656 L 39.230469 16.5625 C 39.230469 16.632812 39.195312 16.699219 39.136719 16.734375 C 39.070312 16.773438 39.003906 16.773438 38.9375 16.734375 L 37.765625 16.054688 C 37.578125 15.945312 37.390625 15.945312 37.203125 16.054688 L 32.527344 18.769531 C 32.351562 18.871094 32.246094 19.066406 32.246094 19.269531 L 32.246094 24.703125 C 32.246094 24.921875 32.339844 25.085938 32.527344 25.195312 L 37.203125 27.914062 C 37.390625 28.023438 37.578125 28.023438 37.765625 27.914062 L 42.445312 25.195312 C 42.632812 25.085938 42.726562 24.921875 42.726562 24.703125 L 42.726562 11.160156 C 42.726562 10.953125 42.617188 10.757812 42.4375 10.660156 L 39.652344 9.089844 C 39.609375 9.066406 39.558594 9.0625 39.511719 9.0625 Z M 9.410156 15.847656 C 9.324219 15.851562 9.238281 15.867188 9.160156 15.914062 L 4.480469 18.628906 C 4.292969 18.738281 4.199219 18.902344 4.199219 19.121094 L 4.207031 26.414062 C 4.207031 26.515625 4.261719 26.609375 4.347656 26.65625 C 4.4375 26.710938 4.542969 26.710938 4.628906 26.65625 L 7.40625 25.054688 C 7.582031 24.949219 7.695312 24.765625 7.695312 24.5625 L 7.695312 21.15625 C 7.695312 20.953125 7.800781 20.769531 7.976562 20.667969 L 9.160156 19.980469 C 9.246094 19.925781 9.339844 19.902344 9.441406 19.902344 C 9.539062 19.902344 9.632812 19.925781 9.722656 19.980469 L 10.902344 20.667969 C 11.078125 20.769531 11.183594 20.953125 11.183594 21.15625 L 11.183594 24.5625 C 11.183594 24.765625 11.300781 24.949219 11.472656 25.054688 L 14.25 26.65625 C 14.335938 26.710938 14.445312 26.710938 14.53125 26.65625 C 14.617188 26.605469 14.671875 26.511719 14.671875 26.410156 L 14.679688 19.121094 C 14.683594 18.902344 14.589844 18.738281 14.398438 18.628906 L 9.722656 15.914062 C 9.640625 15.867188 9.558594 15.851562 9.46875 15.847656 Z M 51.457031 15.914062 C 51.355469 15.914062 51.261719 15.9375 51.175781 15.988281 L 46.496094 18.707031 C 46.320312 18.808594 46.214844 18.992188 46.214844 19.195312 L 46.214844 24.628906 C 46.214844 24.832031 46.328125 25.019531 46.503906 25.121094 L 51.148438 27.78125 C 51.320312 27.878906 51.527344 27.886719 51.699219 27.789062 L 54.511719 26.214844 C 54.601562 26.164062 54.664062 26.070312 54.664062 25.96875 C 54.664062 25.867188 54.609375 25.777344 54.523438 25.722656 L 49.816406 23.007812 C 49.726562 22.957031 49.664062 22.855469 49.664062 22.753906 L 49.664062 21.054688 C 49.664062 20.953125 49.726562 20.859375 49.816406 20.808594 L 51.277344 19.960938 C 51.363281 19.910156 51.472656 19.910156 51.558594 19.960938 L 53.027344 20.808594 C 53.121094 20.863281 53.167969 20.945312 53.167969 21.054688 L 53.167969 22.394531 C 53.164062 22.503906 53.210938 22.585938 53.308594 22.636719 C 53.394531 22.6875 53.5 22.691406 53.589844 22.636719 L 56.390625 20.996094 C 56.566406 20.894531 56.671875 20.707031 56.671875 20.507812 L 56.671875 19.195312 C 56.671875 18.976562 56.578125 18.8125 56.390625 18.703125 L 51.742188 15.988281 C 51.652344 15.9375 51.558594 15.914062 51.460938 15.914062 Z M 37.464844 19.96875 C 37.492188 19.96875 37.519531 19.976562 37.542969 19.988281 L 39.144531 20.921875 C 39.1875 20.949219 39.21875 20.996094 39.21875 21.042969 L 39.21875 22.914062 C 39.21875 22.964844 39.1875 23.011719 39.144531 23.035156 L 37.542969 23.96875 C 37.496094 23.992188 37.445312 23.992188 37.402344 23.96875 L 35.796875 23.035156 C 35.753906 23.007812 35.722656 22.964844 35.722656 22.914062 L 35.722656 21.046875 C 35.722656 20.996094 35.753906 20.949219 35.796875 20.921875 L 37.402344 19.988281 C 37.421875 19.976562 37.441406 19.96875 37.464844 19.96875 Z M 37.464844 19.96875 " fill-opacity="1" fill-rule="nonzero"/></g><path fill="#83cd29" d="M 23.46875 15.882812 C 23.367188 15.882812 23.273438 15.910156 23.1875 15.960938 L 18.507812 18.667969 C 18.332031 18.769531 18.226562 18.964844 18.226562 19.167969 L 18.226562 24.601562 C 18.226562 24.820312 18.320312 24.984375 18.507812 25.089844 L 23.1875 27.808594 C 23.375 27.917969 23.5625 27.917969 23.75 27.808594 L 28.425781 25.089844 C 28.613281 24.980469 28.707031 24.820312 28.707031 24.601562 L 28.707031 19.167969 C 28.707031 18.964844 28.601562 18.769531 28.425781 18.667969 L 23.75 15.960938 C 23.660156 15.910156 23.566406 15.882812 23.464844 15.882812 Z M 51.449219 20.734375 C 51.429688 20.734375 51.410156 20.734375 51.390625 20.742188 L 50.492188 21.269531 C 50.453125 21.292969 50.4375 21.324219 50.433594 21.363281 L 50.433594 22.402344 C 50.433594 22.441406 50.457031 22.476562 50.492188 22.496094 L 51.390625 23.015625 C 51.425781 23.039062 51.460938 23.039062 51.496094 23.015625 L 52.394531 22.496094 C 52.429688 22.476562 52.449219 22.441406 52.449219 22.402344 L 52.449219 21.363281 C 52.449219 21.324219 52.429688 21.289062 52.394531 21.269531 L 51.496094 20.742188 C 51.476562 20.730469 51.464844 20.734375 51.449219 20.734375 Z M 51.449219 20.734375 " fill-opacity="1" fill-rule="nonzero"/></svg>