<svg xmlns="http://www.w3.org/2000/svg" xmlns:xlink="http://www.w3.org/1999/xlink" width="100" zoomAndPan="magnify" viewBox="0 0 75 37.5" height="50" preserveAspectRatio="xMidYMid meet" version="1.0"><defs><clipPath id="8fb8dce2d8"><path d="M 4.195312 7 L 36 7 L 36 29 L 4.195312 29 Z M 4.195312 7 " clip-rule="nonzero"/></clipPath><clipPath id="eb94afdb8d"><path d="M 4.195312 6.875 L 31 6.875 L 31 29.820312 L 4.195312 29.820312 Z M 4.195312 6.875 " clip-rule="nonzero"/></clipPath><clipPath id="463ec49585"><path d="M 34 13 L 70.804688 13 L 70.804688 25 L 34 25 Z M 34 13 " clip-rule="nonzero"/></clipPath></defs><path fill="#00d8ff" d="M 19.242188 18.328125 C 19.242188 18.621094 19.183594 18.902344 19.070312 19.171875 C 18.957031 19.441406 18.796875 19.679688 18.589844 19.886719 C 18.378906 20.09375 18.136719 20.25 17.863281 20.363281 C 17.589844 20.476562 17.304688 20.53125 17.011719 20.53125 C 16.714844 20.53125 16.429688 20.476562 16.15625 20.363281 C 15.882812 20.25 15.640625 20.09375 15.433594 19.886719 C 15.222656 19.679688 15.0625 19.441406 14.949219 19.171875 C 14.835938 18.902344 14.777344 18.621094 14.777344 18.328125 C 14.777344 18.035156 14.835938 17.753906 14.949219 17.484375 C 15.0625 17.214844 15.222656 16.976562 15.433594 16.769531 C 15.640625 16.5625 15.882812 16.40625 16.15625 16.292969 C 16.429688 16.179688 16.714844 16.125 17.011719 16.125 C 17.304688 16.125 17.589844 16.179688 17.863281 16.292969 C 18.136719 16.40625 18.378906 16.5625 18.589844 16.769531 C 18.796875 16.976562 18.957031 17.214844 19.070312 17.484375 C 19.183594 17.753906 19.242188 18.035156 19.242188 18.328125 Z M 19.242188 18.328125 " fill-opacity="1" fill-rule="nonzero"/><g clip-path="url(#8fb8dce2d8)"><path stroke-linecap="butt" transform="matrix(0.0444861, 0, 0, 0.0439107, 5.019884, 7.893775)" fill="none" stroke-linejoin="miter" d="M 269.563637 135.590805 C 336.912623 135.590805 399.43215 145.287341 446.67303 161.566846 C 503.485016 181.137835 538.43273 210.761196 538.43273 237.626827 C 538.43273 265.648925 501.377617 297.140426 440.35083 317.334128 C 394.163651 332.635084 333.488098 340.641397 269.563637 340.641397 C 203.970818 340.641397 141.890331 333.168838 95.26411 317.15621 C 36.169107 297.051467 0.606735 265.115171 0.606735 237.626827 C 0.606735 211.028073 33.973899 181.58263 89.995611 162.011641 C 137.412107 145.465259 201.512184 135.590805 269.563637 135.590805 Z M 269.563637 135.590805 " stroke="#00d8ff" stroke-width="24" stroke-opacity="1" stroke-miterlimit="4"/></g><g clip-path="url(#eb94afdb8d)"><path stroke-linecap="butt" transform="matrix(0.0444861, 0, 0, 0.0439107, 5.019884, 7.893775)" fill="none" stroke-linejoin="miter" d="M 180.701611 186.920173 C 214.420008 128.563041 254.021563 79.190772 291.691335 46.453845 C 337.000431 6.95603 380.202127 -8.522843 403.471333 4.909972 C 427.706431 18.876542 436.487264 66.736507 423.491632 129.719508 C 413.657099 177.312596 390.300085 233.979506 358.337854 289.31203 C 325.585349 346.156858 288.091194 396.15184 250.948272 428.62189 C 203.970818 469.632009 158.573913 484.577128 134.777857 470.788476 C 111.684267 457.533579 102.815626 413.943648 113.967284 355.586517 C 123.274966 306.303207 146.719789 245.811058 180.701611 186.920173 Z M 180.701611 186.920173 " stroke="#00d8ff" stroke-width="24" stroke-opacity="1" stroke-miterlimit="4"/><path stroke-linecap="butt" transform="matrix(0.0444861, 0, 0, 0.0439107, 5.019884, 7.893775)" fill="none" stroke-linejoin="miter" d="M 180.78942 289.489948 C 147.071023 231.221776 124.065241 172.241931 114.494134 123.225498 C 102.991243 64.245653 111.157417 19.143419 134.338815 5.621645 C 158.573913 -8.344925 204.409859 7.93458 252.528822 50.63492 C 288.881468 82.838093 326.200007 131.40973 358.250046 186.742254 C 391.09036 243.498123 415.676691 300.965665 425.247798 349.359384 C 437.365347 410.563205 427.618623 457.355661 403.822567 471.055353 C 380.728977 484.39921 338.580981 470.343681 293.53531 431.557539 C 255.602113 398.90957 214.85905 348.380834 180.78942 289.489948 Z M 180.78942 289.489948 " stroke="#00d8ff" stroke-width="24" stroke-opacity="1" stroke-miterlimit="4"/></g><g clip-path="url(#463ec49585)"><path fill="#00d8ff" d="M 41.78125 23.957031 L 39.046875 19.878906 C 40.429688 19.757812 41.675781 18.769531 41.675781 16.960938 C 41.675781 15.125 40.355469 13.949219 38.5 13.949219 L 34.429688 13.949219 L 34.429688 23.949219 L 35.691406 23.949219 L 35.691406 19.976562 L 37.710938 19.976562 L 40.292969 23.949219 Z M 38.347656 18.886719 L 35.691406 18.886719 L 35.691406 15.0625 L 38.347656 15.0625 C 39.550781 15.0625 40.371094 15.84375 40.371094 16.96875 C 40.371094 18.09375 39.550781 18.890625 38.347656 18.890625 Z M 46.476562 24.136719 C 47.679688 24.136719 48.664062 23.746094 49.394531 23.027344 L 48.847656 22.292969 C 48.269531 22.875 47.417969 23.207031 46.585938 23.207031 C 45.003906 23.207031 44.03125 22.066406 43.941406 20.703125 L 49.878906 20.703125 L 49.878906 20.417969 C 49.878906 18.242188 48.574219 16.535156 46.355469 16.535156 C 44.257812 16.535156 42.738281 18.226562 42.738281 20.328125 C 42.738281 22.59375 44.304688 24.128906 46.476562 24.128906 Z M 48.757812 19.875 L 43.941406 19.875 C 44.003906 18.765625 44.777344 17.460938 46.339844 17.460938 C 48.011719 17.460938 48.742188 18.796875 48.757812 19.875 Z M 57.449219 23.957031 L 57.449219 18.976562 C 57.449219 17.222656 56.15625 16.53125 54.605469 16.53125 C 53.40625 16.53125 52.464844 16.921875 51.675781 17.734375 L 52.207031 18.511719 C 52.859375 17.824219 53.574219 17.507812 54.457031 17.507812 C 55.519531 17.507812 56.308594 18.0625 56.308594 19.035156 L 56.308594 20.339844 C 55.714844 19.667969 54.882812 19.351562 53.878906 19.351562 C 52.632812 19.351562 51.308594 20.117188 51.308594 21.734375 C 51.308594 23.308594 52.632812 24.136719 53.878906 24.136719 C 54.867188 24.136719 55.703125 23.789062 56.308594 23.128906 L 56.308594 23.953125 Z M 54.289062 23.324219 C 53.226562 23.324219 52.480469 22.667969 52.480469 21.75 C 52.480469 20.820312 53.226562 20.160156 54.289062 20.160156 C 55.09375 20.160156 55.867188 20.460938 56.308594 21.0625 L 56.308594 22.425781 C 55.867188 23.027344 55.09375 23.328125 54.289062 23.328125 Z M 62.957031 24.136719 C 64.292969 24.136719 65.082031 23.597656 65.644531 22.875 L 64.886719 22.1875 C 64.398438 22.832031 63.777344 23.132812 63.023438 23.132812 C 61.460938 23.132812 60.488281 21.929688 60.488281 20.328125 C 60.488281 18.722656 61.460938 17.539062 63.023438 17.539062 C 63.785156 17.539062 64.40625 17.824219 64.886719 18.484375 L 65.644531 17.792969 C 65.085938 17.074219 64.292969 16.535156 62.957031 16.535156 C 60.769531 16.535156 59.296875 18.183594 59.296875 20.328125 C 59.296875 22.488281 60.769531 24.128906 62.957031 24.128906 Z M 69.09375 24.136719 C 69.761719 24.136719 70.175781 23.941406 70.464844 23.671875 L 70.128906 22.832031 C 69.976562 22.996094 69.679688 23.132812 69.355469 23.132812 C 68.851562 23.132812 68.609375 22.742188 68.609375 22.203125 L 68.609375 17.703125 L 70.097656 17.703125 L 70.097656 16.714844 L 68.609375 16.714844 L 68.609375 14.734375 L 67.46875 14.734375 L 67.46875 16.714844 L 66.253906 16.714844 L 66.253906 17.703125 L 67.46875 17.703125 L 67.46875 22.441406 C 67.46875 23.523438 68.015625 24.136719 69.09375 24.136719 Z M 69.09375 24.136719 " fill-opacity="1" fill-rule="evenodd"/></g></svg>