<svg xmlns="http://www.w3.org/2000/svg" xmlns:xlink="http://www.w3.org/1999/xlink" width="100" zoomAndPan="magnify" viewBox="0 0 75 37.5" height="50" preserveAspectRatio="xMidYMid meet" version="1.0"><defs><g/><clipPath id="888445a69a"><path d="M 4.195312 12.722656 L 23.4375 12.722656 L 23.4375 24.566406 L 4.195312 24.566406 Z M 4.195312 12.722656 " clip-rule="nonzero"/></clipPath><clipPath id="1e16224392"><path d="M 13.816406 12.722656 C 11.25 12.722656 9.644531 14.039062 9.003906 16.671875 C 9.96875 15.355469 11.089844 14.863281 12.371094 15.191406 C 13.105469 15.378906 13.628906 15.921875 14.207031 16.527344 C 15.148438 17.507812 16.242188 18.644531 18.625 18.644531 C 21.191406 18.644531 22.796875 17.328125 23.4375 14.699219 C 22.476562 16.011719 21.351562 16.507812 20.070312 16.175781 C 19.339844 15.988281 18.816406 15.445312 18.234375 14.84375 C 17.292969 13.859375 16.199219 12.722656 13.816406 12.722656 Z M 9.003906 18.644531 C 6.4375 18.644531 4.835938 19.960938 4.195312 22.59375 C 5.15625 21.277344 6.277344 20.78125 7.5625 21.113281 C 8.292969 21.300781 8.816406 21.84375 9.394531 22.445312 C 10.339844 23.429688 11.429688 24.566406 13.816406 24.566406 C 16.382812 24.566406 17.984375 23.25 18.625 20.617188 C 17.664062 21.933594 16.542969 22.425781 15.257812 22.097656 C 14.527344 21.910156 14.003906 21.367188 13.425781 20.761719 C 12.480469 19.78125 11.390625 18.644531 9.003906 18.644531 Z M 9.003906 18.644531 " clip-rule="nonzero"/></clipPath><linearGradient x1="-13.502175" gradientTransform="matrix(0.128289, 0, 0, 0.131579, 4.194079, 12.723746)" y1="23.417478" x2="138.017666" gradientUnits="userSpaceOnUse" y2="110.781534" id="c6756e27ec"><stop stop-opacity="1" stop-color="rgb(13.299561%, 59.599304%, 74.099731%)" offset="0"/><stop stop-opacity="1" stop-color="rgb(13.294983%, 59.611511%, 74.098206%)" offset="0.0625"/><stop stop-opacity="1" stop-color="rgb(13.25531%, 59.738159%, 74.081421%)" offset="0.0703125"/><stop stop-opacity="1" stop-color="rgb(13.183594%, 59.963989%, 74.052429%)" offset="0.078125"/><stop stop-opacity="1" stop-color="rgb(13.111877%, 60.189819%, 74.024963%)" offset="0.0859375"/><stop stop-opacity="1" stop-color="rgb(13.041687%, 60.414124%, 73.995972%)" offset="0.09375"/><stop stop-opacity="1" stop-color="rgb(12.969971%, 60.639954%, 73.968506%)" offset="0.101562"/><stop stop-opacity="1" stop-color="rgb(12.898254%, 60.865784%, 73.939514%)" offset="0.109375"/><stop stop-opacity="1" stop-color="rgb(12.828064%, 61.091614%, 73.912048%)" offset="0.117188"/><stop stop-opacity="1" stop-color="rgb(12.756348%, 61.317444%, 73.883057%)" offset="0.125"/><stop stop-opacity="1" stop-color="rgb(12.684631%, 61.543274%, 73.854065%)" offset="0.132812"/><stop stop-opacity="1" stop-color="rgb(12.612915%, 61.769104%, 73.826599%)" offset="0.140625"/><stop stop-opacity="1" stop-color="rgb(12.542725%, 61.994934%, 73.797607%)" offset="0.148437"/><stop stop-opacity="1" stop-color="rgb(12.471008%, 62.220764%, 73.770142%)" offset="0.15625"/><stop stop-opacity="1" stop-color="rgb(12.399292%, 62.446594%, 73.74115%)" offset="0.164062"/><stop stop-opacity="1" stop-color="rgb(12.329102%, 62.672424%, 73.713684%)" offset="0.171875"/><stop stop-opacity="1" stop-color="rgb(12.257385%, 62.896729%, 73.684692%)" offset="0.179688"/><stop stop-opacity="1" stop-color="rgb(12.185669%, 63.122559%, 73.657227%)" offset="0.1875"/><stop stop-opacity="1" stop-color="rgb(12.113953%, 63.348389%, 73.628235%)" offset="0.195312"/><stop stop-opacity="1" stop-color="rgb(12.043762%, 63.574219%, 73.599243%)" offset="0.203125"/><stop stop-opacity="1" stop-color="rgb(11.972046%, 63.800049%, 73.571777%)" offset="0.210937"/><stop stop-opacity="1" stop-color="rgb(11.90033%, 64.025879%, 73.542786%)" offset="0.21875"/><stop stop-opacity="1" stop-color="rgb(11.830139%, 64.251709%, 73.51532%)" offset="0.226562"/><stop stop-opacity="1" stop-color="rgb(11.758423%, 64.477539%, 73.486328%)" offset="0.234375"/><stop stop-opacity="1" stop-color="rgb(11.686707%, 64.703369%, 73.458862%)" offset="0.242188"/><stop stop-opacity="1" stop-color="rgb(11.61499%, 64.929199%, 73.429871%)" offset="0.25"/><stop stop-opacity="1" stop-color="rgb(11.5448%, 65.155029%, 73.400879%)" offset="0.257031"/><stop stop-opacity="1" stop-color="rgb(11.509705%, 65.267944%, 73.387146%)" offset="0.257812"/><stop stop-opacity="1" stop-color="rgb(11.473083%, 65.380859%, 73.373413%)" offset="0.265625"/><stop stop-opacity="1" stop-color="rgb(11.401367%, 65.605164%, 73.344421%)" offset="0.273437"/><stop stop-opacity="1" stop-color="rgb(11.331177%, 65.830994%, 73.316956%)" offset="0.28125"/><stop stop-opacity="1" stop-color="rgb(11.25946%, 66.056824%, 73.287964%)" offset="0.289062"/><stop stop-opacity="1" stop-color="rgb(11.187744%, 66.282654%, 73.260498%)" offset="0.296875"/><stop stop-opacity="1" stop-color="rgb(11.116028%, 66.508484%, 73.231506%)" offset="0.304687"/><stop stop-opacity="1" stop-color="rgb(11.045837%, 66.734314%, 73.204041%)" offset="0.3125"/><stop stop-opacity="1" stop-color="rgb(10.974121%, 66.960144%, 73.175049%)" offset="0.320312"/><stop stop-opacity="1" stop-color="rgb(10.902405%, 67.185974%, 73.146057%)" offset="0.328125"/><stop stop-opacity="1" stop-color="rgb(10.832214%, 67.411804%, 73.118591%)" offset="0.335937"/><stop stop-opacity="1" stop-color="rgb(10.760498%, 67.637634%, 73.0896%)" offset="0.34375"/><stop stop-opacity="1" stop-color="rgb(10.688782%, 67.863464%, 73.062134%)" offset="0.351562"/><stop stop-opacity="1" stop-color="rgb(10.618591%, 68.087769%, 73.033142%)" offset="0.359375"/><stop stop-opacity="1" stop-color="rgb(10.546875%, 68.313599%, 73.005676%)" offset="0.367187"/><stop stop-opacity="1" stop-color="rgb(10.475159%, 68.539429%, 72.976685%)" offset="0.375"/><stop stop-opacity="1" stop-color="rgb(10.403442%, 68.765259%, 72.947693%)" offset="0.382812"/><stop stop-opacity="1" stop-color="rgb(10.333252%, 68.991089%, 72.920227%)" offset="0.390625"/><stop stop-opacity="1" stop-color="rgb(10.261536%, 69.216919%, 72.891235%)" offset="0.398437"/><stop stop-opacity="1" stop-color="rgb(10.189819%, 69.442749%, 72.86377%)" offset="0.40625"/><stop stop-opacity="1" stop-color="rgb(10.119629%, 69.668579%, 72.834778%)" offset="0.414062"/><stop stop-opacity="1" stop-color="rgb(10.047913%, 69.894409%, 72.807312%)" offset="0.421875"/><stop stop-opacity="1" stop-color="rgb(9.976196%, 70.120239%, 72.77832%)" offset="0.429688"/><stop stop-opacity="1" stop-color="rgb(9.90448%, 70.346069%, 72.749329%)" offset="0.4375"/><stop stop-opacity="1" stop-color="rgb(9.83429%, 70.570374%, 72.721863%)" offset="0.445312"/><stop stop-opacity="1" stop-color="rgb(9.762573%, 70.796204%, 72.692871%)" offset="0.453125"/><stop stop-opacity="1" stop-color="rgb(9.690857%, 71.022034%, 72.665405%)" offset="0.460937"/><stop stop-opacity="1" stop-color="rgb(9.620667%, 71.247864%, 72.636414%)" offset="0.46875"/><stop stop-opacity="1" stop-color="rgb(9.54895%, 71.473694%, 72.608948%)" offset="0.476562"/><stop stop-opacity="1" stop-color="rgb(9.477234%, 71.699524%, 72.579956%)" offset="0.484375"/><stop stop-opacity="1" stop-color="rgb(9.405518%, 71.925354%, 72.55249%)" offset="0.492188"/><stop stop-opacity="1" stop-color="rgb(9.335327%, 72.151184%, 72.523499%)" offset="0.5"/><stop stop-opacity="1" stop-color="rgb(9.263611%, 72.377014%, 72.494507%)" offset="0.507812"/><stop stop-opacity="1" stop-color="rgb(9.191895%, 72.602844%, 72.467041%)" offset="0.515625"/><stop stop-opacity="1" stop-color="rgb(9.121704%, 72.828674%, 72.438049%)" offset="0.523438"/><stop stop-opacity="1" stop-color="rgb(9.049988%, 73.052979%, 72.410583%)" offset="0.53125"/><stop stop-opacity="1" stop-color="rgb(8.978271%, 73.278809%, 72.381592%)" offset="0.539062"/><stop stop-opacity="1" stop-color="rgb(8.908081%, 73.504639%, 72.354126%)" offset="0.546875"/><stop stop-opacity="1" stop-color="rgb(8.836365%, 73.730469%, 72.325134%)" offset="0.554688"/><stop stop-opacity="1" stop-color="rgb(8.764648%, 73.956299%, 72.296143%)" offset="0.5625"/><stop stop-opacity="1" stop-color="rgb(8.692932%, 74.182129%, 72.268677%)" offset="0.570312"/><stop stop-opacity="1" stop-color="rgb(8.622742%, 74.407959%, 72.239685%)" offset="0.578125"/><stop stop-opacity="1" stop-color="rgb(8.551025%, 74.633789%, 72.212219%)" offset="0.585938"/><stop stop-opacity="1" stop-color="rgb(8.479309%, 74.859619%, 72.183228%)" offset="0.59375"/><stop stop-opacity="1" stop-color="rgb(8.409119%, 75.085449%, 72.155762%)" offset="0.601562"/><stop stop-opacity="1" stop-color="rgb(8.337402%, 75.311279%, 72.12677%)" offset="0.609375"/><stop stop-opacity="1" stop-color="rgb(8.265686%, 75.537109%, 72.099304%)" offset="0.617188"/><stop stop-opacity="1" stop-color="rgb(8.19397%, 75.761414%, 72.070312%)" offset="0.625"/><stop stop-opacity="1" stop-color="rgb(8.123779%, 75.987244%, 72.041321%)" offset="0.632812"/><stop stop-opacity="1" stop-color="rgb(8.052063%, 76.213074%, 72.013855%)" offset="0.640625"/><stop stop-opacity="1" stop-color="rgb(7.980347%, 76.438904%, 71.984863%)" offset="0.648438"/><stop stop-opacity="1" stop-color="rgb(7.910156%, 76.664734%, 71.957397%)" offset="0.65625"/><stop stop-opacity="1" stop-color="rgb(7.83844%, 76.890564%, 71.928406%)" offset="0.664062"/><stop stop-opacity="1" stop-color="rgb(7.766724%, 77.116394%, 71.90094%)" offset="0.671875"/><stop stop-opacity="1" stop-color="rgb(7.695007%, 77.342224%, 71.871948%)" offset="0.679688"/><stop stop-opacity="1" stop-color="rgb(7.624817%, 77.568054%, 71.842957%)" offset="0.6875"/><stop stop-opacity="1" stop-color="rgb(7.553101%, 77.793884%, 71.815491%)" offset="0.695312"/><stop stop-opacity="1" stop-color="rgb(7.481384%, 78.019714%, 71.786499%)" offset="0.703125"/><stop stop-opacity="1" stop-color="rgb(7.411194%, 78.244019%, 71.759033%)" offset="0.710938"/><stop stop-opacity="1" stop-color="rgb(7.339478%, 78.469849%, 71.730042%)" offset="0.71875"/><stop stop-opacity="1" stop-color="rgb(7.267761%, 78.695679%, 71.702576%)" offset="0.726562"/><stop stop-opacity="1" stop-color="rgb(7.196045%, 78.921509%, 71.673584%)" offset="0.734375"/><stop stop-opacity="1" stop-color="rgb(7.125854%, 79.147339%, 71.646118%)" offset="0.742188"/><stop stop-opacity="1" stop-color="rgb(7.054138%, 79.373169%, 71.617126%)" offset="0.742969"/><stop stop-opacity="1" stop-color="rgb(7.019043%, 79.486084%, 71.603394%)" offset="0.75"/><stop stop-opacity="1" stop-color="rgb(6.982422%, 79.598999%, 71.588135%)" offset="0.757812"/><stop stop-opacity="1" stop-color="rgb(6.912231%, 79.824829%, 71.560669%)" offset="0.765625"/><stop stop-opacity="1" stop-color="rgb(6.840515%, 80.050659%, 71.531677%)" offset="0.773438"/><stop stop-opacity="1" stop-color="rgb(6.768799%, 80.276489%, 71.504211%)" offset="0.78125"/><stop stop-opacity="1" stop-color="rgb(6.698608%, 80.502319%, 71.47522%)" offset="0.789062"/><stop stop-opacity="1" stop-color="rgb(6.626892%, 80.726624%, 71.447754%)" offset="0.796875"/><stop stop-opacity="1" stop-color="rgb(6.555176%, 80.952454%, 71.418762%)" offset="0.804688"/><stop stop-opacity="1" stop-color="rgb(6.483459%, 81.178284%, 71.389771%)" offset="0.8125"/><stop stop-opacity="1" stop-color="rgb(6.413269%, 81.404114%, 71.362305%)" offset="0.820312"/><stop stop-opacity="1" stop-color="rgb(6.341553%, 81.629944%, 71.333313%)" offset="0.828125"/><stop stop-opacity="1" stop-color="rgb(6.269836%, 81.855774%, 71.305847%)" offset="0.835938"/><stop stop-opacity="1" stop-color="rgb(6.199646%, 82.081604%, 71.276855%)" offset="0.84375"/><stop stop-opacity="1" stop-color="rgb(6.12793%, 82.307434%, 71.24939%)" offset="0.851562"/><stop stop-opacity="1" stop-color="rgb(6.056213%, 82.533264%, 71.220398%)" offset="0.859375"/><stop stop-opacity="1" stop-color="rgb(5.984497%, 82.759094%, 71.191406%)" offset="0.867188"/><stop stop-opacity="1" stop-color="rgb(5.914307%, 82.984924%, 71.16394%)" offset="0.875"/><stop stop-opacity="1" stop-color="rgb(5.84259%, 83.210754%, 71.134949%)" offset="0.882812"/><stop stop-opacity="1" stop-color="rgb(5.770874%, 83.435059%, 71.107483%)" offset="0.890625"/><stop stop-opacity="1" stop-color="rgb(5.700684%, 83.660889%, 71.078491%)" offset="0.898438"/><stop stop-opacity="1" stop-color="rgb(5.628967%, 83.886719%, 71.051025%)" offset="0.90625"/><stop stop-opacity="1" stop-color="rgb(5.54657%, 84.14917%, 71.017456%)" offset="0.9375"/><stop stop-opacity="1" stop-color="rgb(5.499268%, 84.298706%, 70.999146%)" offset="1"/></linearGradient></defs><g clip-path="url(#888445a69a)"><g clip-path="url(#1e16224392)"><path fill="url(#c6756e27ec)" d="M 4.195312 12.722656 L 4.195312 24.566406 L 23.4375 24.566406 L 23.4375 12.722656 Z M 4.195312 12.722656 " fill-rule="nonzero"/></g></g><g fill="#000000" fill-opacity="1"><g transform="translate(23.508794, 20.882288)"><g><path d="M 3.140625 -1.078125 L 3.4375 -0.234375 C 3.3125 -0.140625 3.15625 -0.0625 2.96875 0 C 2.78125 0.0625 2.570312 0.09375 2.34375 0.09375 C 1.84375 0.09375 1.460938 -0.0390625 1.203125 -0.3125 C 0.953125 -0.582031 0.828125 -0.972656 0.828125 -1.484375 L 0.828125 -3.65625 L 0.140625 -3.65625 L 0.140625 -4.5625 L 0.828125 -4.5625 L 0.828125 -5.4375 L 1.96875 -5.625 L 1.96875 -4.5625 L 3.265625 -4.5625 L 3.265625 -3.65625 L 1.96875 -3.65625 L 1.96875 -1.5625 C 1.96875 -1.34375 2.015625 -1.179688 2.109375 -1.078125 C 2.203125 -0.972656 2.335938 -0.921875 2.515625 -0.921875 C 2.722656 -0.921875 2.898438 -0.972656 3.046875 -1.078125 Z M 3.140625 -1.078125 "/></g></g></g><g fill="#000000" fill-opacity="1"><g transform="translate(27.044936, 20.882288)"><g><path d="M 1.78125 0.09375 C 1.488281 0.09375 1.234375 0.0390625 1.015625 -0.0625 C 0.796875 -0.175781 0.628906 -0.335938 0.515625 -0.546875 C 0.398438 -0.753906 0.34375 -1.003906 0.34375 -1.296875 C 0.34375 -1.566406 0.398438 -1.789062 0.515625 -1.96875 C 0.628906 -2.15625 0.804688 -2.304688 1.046875 -2.421875 C 1.296875 -2.535156 1.613281 -2.625 2 -2.6875 C 2.28125 -2.738281 2.488281 -2.789062 2.625 -2.84375 C 2.769531 -2.894531 2.863281 -2.953125 2.90625 -3.015625 C 2.957031 -3.078125 2.984375 -3.160156 2.984375 -3.265625 C 2.984375 -3.410156 2.929688 -3.519531 2.828125 -3.59375 C 2.734375 -3.675781 2.566406 -3.71875 2.328125 -3.71875 C 2.078125 -3.71875 1.835938 -3.660156 1.609375 -3.546875 C 1.378906 -3.429688 1.179688 -3.285156 1.015625 -3.109375 L 0.921875 -3.109375 L 0.453125 -3.828125 C 0.679688 -4.078125 0.960938 -4.273438 1.296875 -4.421875 C 1.628906 -4.566406 1.992188 -4.640625 2.390625 -4.640625 C 2.992188 -4.640625 3.425781 -4.507812 3.6875 -4.25 C 3.957031 -4 4.09375 -3.640625 4.09375 -3.171875 L 4.09375 -1.1875 C 4.09375 -0.988281 4.179688 -0.890625 4.359375 -0.890625 C 4.429688 -0.890625 4.5 -0.898438 4.5625 -0.921875 L 4.625 -0.90625 L 4.703125 -0.109375 C 4.640625 -0.0664062 4.550781 -0.03125 4.4375 0 C 4.332031 0.0195312 4.210938 0.03125 4.078125 0.03125 C 3.804688 0.03125 3.59375 -0.0195312 3.4375 -0.125 C 3.28125 -0.226562 3.171875 -0.390625 3.109375 -0.609375 L 3.015625 -0.625 C 2.796875 -0.144531 2.382812 0.09375 1.78125 0.09375 Z M 2.140625 -0.765625 C 2.398438 -0.765625 2.609375 -0.851562 2.765625 -1.03125 C 2.929688 -1.207031 3.015625 -1.457031 3.015625 -1.78125 L 3.015625 -2.234375 L 2.9375 -2.25 C 2.863281 -2.195312 2.769531 -2.148438 2.65625 -2.109375 C 2.550781 -2.078125 2.390625 -2.039062 2.171875 -2 C 1.929688 -1.957031 1.753906 -1.882812 1.640625 -1.78125 C 1.535156 -1.6875 1.484375 -1.546875 1.484375 -1.359375 C 1.484375 -1.171875 1.539062 -1.023438 1.65625 -0.921875 C 1.769531 -0.816406 1.929688 -0.765625 2.140625 -0.765625 Z M 2.140625 -0.765625 "/></g></g></g><g fill="#000000" fill-opacity="1"><g transform="translate(31.843687, 20.882288)"><g><path d="M 1.21875 -5.09375 C 1.019531 -5.09375 0.851562 -5.15625 0.71875 -5.28125 C 0.59375 -5.40625 0.53125 -5.566406 0.53125 -5.765625 C 0.53125 -5.960938 0.59375 -6.125 0.71875 -6.25 C 0.851562 -6.375 1.019531 -6.4375 1.21875 -6.4375 C 1.363281 -6.4375 1.488281 -6.40625 1.59375 -6.34375 C 1.695312 -6.289062 1.78125 -6.210938 1.84375 -6.109375 C 1.90625 -6.015625 1.9375 -5.898438 1.9375 -5.765625 C 1.9375 -5.640625 1.90625 -5.523438 1.84375 -5.421875 C 1.78125 -5.316406 1.695312 -5.234375 1.59375 -5.171875 C 1.488281 -5.117188 1.363281 -5.09375 1.21875 -5.09375 Z M 0.65625 0 L 0.65625 -4.546875 L 1.796875 -4.546875 L 1.796875 0 Z M 0.65625 0 "/></g></g></g><g fill="#000000" fill-opacity="1"><g transform="translate(34.294634, 20.882288)"><g><path d="M 1.890625 0.09375 C 1.484375 0.09375 1.171875 -0.015625 0.953125 -0.234375 C 0.734375 -0.460938 0.625 -0.800781 0.625 -1.25 L 0.625 -6.375 L 1.765625 -6.375 L 1.765625 -1.296875 C 1.765625 -1.023438 1.882812 -0.890625 2.125 -0.890625 C 2.1875 -0.890625 2.253906 -0.898438 2.328125 -0.921875 L 2.390625 -0.90625 L 2.484375 -0.015625 C 2.421875 0.015625 2.335938 0.0390625 2.234375 0.0625 C 2.128906 0.0820312 2.015625 0.09375 1.890625 0.09375 Z M 1.890625 0.09375 "/></g></g></g><g fill="#000000" fill-opacity="1"><g transform="translate(36.910627, 20.882288)"><g><path d="M 2.4375 0 L 1.25 0 L 0.171875 -4.546875 L 1.21875 -4.546875 L 1.890625 -1.46875 L 1.984375 -1.46875 L 2.84375 -4.546875 L 3.84375 -4.546875 L 4.734375 -1.46875 L 4.828125 -1.46875 L 5.46875 -4.546875 L 6.5 -4.546875 L 5.421875 0 L 4.234375 0 L 3.359375 -3.09375 L 3.28125 -3.09375 Z M 2.4375 0 "/></g></g></g><g fill="#000000" fill-opacity="1"><g transform="translate(43.566156, 20.882288)"><g><path d="M 1.21875 -5.09375 C 1.019531 -5.09375 0.851562 -5.15625 0.71875 -5.28125 C 0.59375 -5.40625 0.53125 -5.566406 0.53125 -5.765625 C 0.53125 -5.960938 0.59375 -6.125 0.71875 -6.25 C 0.851562 -6.375 1.019531 -6.4375 1.21875 -6.4375 C 1.363281 -6.4375 1.488281 -6.40625 1.59375 -6.34375 C 1.695312 -6.289062 1.78125 -6.210938 1.84375 -6.109375 C 1.90625 -6.015625 1.9375 -5.898438 1.9375 -5.765625 C 1.9375 -5.640625 1.90625 -5.523438 1.84375 -5.421875 C 1.78125 -5.316406 1.695312 -5.234375 1.59375 -5.171875 C 1.488281 -5.117188 1.363281 -5.09375 1.21875 -5.09375 Z M 0.65625 0 L 0.65625 -4.546875 L 1.796875 -4.546875 L 1.796875 0 Z M 0.65625 0 "/></g></g></g><g fill="#000000" fill-opacity="1"><g transform="translate(46.017103, 20.882288)"><g><path d="M 0.65625 0 L 0.65625 -4.546875 L 1.75 -4.546875 L 1.75 -3.890625 L 1.84375 -3.859375 C 2.125 -4.378906 2.582031 -4.640625 3.21875 -4.640625 C 3.738281 -4.640625 4.125 -4.492188 4.375 -4.203125 C 4.625 -3.921875 4.75 -3.503906 4.75 -2.953125 L 4.75 0 L 3.609375 0 L 3.609375 -2.8125 C 3.609375 -3.113281 3.546875 -3.332031 3.421875 -3.46875 C 3.296875 -3.601562 3.101562 -3.671875 2.84375 -3.671875 C 2.507812 -3.671875 2.25 -3.5625 2.0625 -3.34375 C 1.882812 -3.132812 1.796875 -2.804688 1.796875 -2.359375 L 1.796875 0 Z M 0.65625 0 "/></g></g></g><g fill="#000000" fill-opacity="1"><g transform="translate(51.348118, 20.882288)"><g><path d="M 2.25 0.09375 C 1.882812 0.09375 1.5625 0.00390625 1.28125 -0.171875 C 1.007812 -0.347656 0.796875 -0.613281 0.640625 -0.96875 C 0.484375 -1.320312 0.40625 -1.757812 0.40625 -2.28125 C 0.40625 -2.789062 0.484375 -3.222656 0.640625 -3.578125 C 0.804688 -3.929688 1.03125 -4.195312 1.3125 -4.375 C 1.601562 -4.550781 1.9375 -4.640625 2.3125 -4.640625 C 2.59375 -4.640625 2.835938 -4.585938 3.046875 -4.484375 C 3.253906 -4.390625 3.425781 -4.238281 3.5625 -4.03125 L 3.65625 -4.0625 L 3.65625 -6.375 L 4.796875 -6.375 L 4.796875 0 L 3.65625 0 L 3.65625 -0.59375 L 3.5625 -0.609375 C 3.4375 -0.390625 3.265625 -0.21875 3.046875 -0.09375 C 2.828125 0.03125 2.5625 0.09375 2.25 0.09375 Z M 2.625 -0.890625 C 2.945312 -0.890625 3.203125 -1.003906 3.390625 -1.234375 C 3.578125 -1.460938 3.671875 -1.8125 3.671875 -2.28125 C 3.671875 -2.738281 3.578125 -3.082031 3.390625 -3.3125 C 3.203125 -3.550781 2.945312 -3.671875 2.625 -3.671875 C 2.289062 -3.671875 2.03125 -3.554688 1.84375 -3.328125 C 1.664062 -3.109375 1.578125 -2.757812 1.578125 -2.28125 C 1.578125 -1.800781 1.664062 -1.445312 1.84375 -1.21875 C 2.03125 -1 2.289062 -0.890625 2.625 -0.890625 Z M 2.625 -0.890625 "/></g></g></g><g fill="#000000" fill-opacity="1"><g transform="translate(56.802918, 20.882288)"><g><path d="M 2.65625 0.09375 C 2.21875 0.09375 1.828125 0 1.484375 -0.1875 C 1.148438 -0.375 0.882812 -0.644531 0.6875 -1 C 0.5 -1.351562 0.40625 -1.78125 0.40625 -2.28125 C 0.40625 -2.78125 0.5 -3.207031 0.6875 -3.5625 C 0.882812 -3.914062 1.148438 -4.179688 1.484375 -4.359375 C 1.816406 -4.546875 2.203125 -4.640625 2.640625 -4.640625 C 3.597656 -4.640625 4.210938 -4.289062 4.484375 -3.59375 L 3.6875 -3.03125 L 3.609375 -3.03125 C 3.515625 -3.25 3.390625 -3.410156 3.234375 -3.515625 C 3.085938 -3.617188 2.890625 -3.671875 2.640625 -3.671875 C 2.304688 -3.671875 2.046875 -3.554688 1.859375 -3.328125 C 1.671875 -3.097656 1.578125 -2.75 1.578125 -2.28125 C 1.578125 -1.8125 1.671875 -1.460938 1.859375 -1.234375 C 2.046875 -1.003906 2.3125 -0.890625 2.65625 -0.890625 C 2.90625 -0.890625 3.113281 -0.953125 3.28125 -1.078125 C 3.457031 -1.210938 3.582031 -1.40625 3.65625 -1.65625 L 3.734375 -1.671875 L 4.546875 -1.21875 C 4.429688 -0.832031 4.21875 -0.515625 3.90625 -0.265625 C 3.59375 -0.0234375 3.175781 0.09375 2.65625 0.09375 Z M 2.65625 0.09375 "/></g></g></g><g fill="#000000" fill-opacity="1"><g transform="translate(61.494389, 20.882288)"><g><path d="M 2.125 0.09375 C 1.8125 0.09375 1.523438 0.0546875 1.265625 -0.015625 C 1.015625 -0.0859375 0.796875 -0.1875 0.609375 -0.3125 C 0.429688 -0.445312 0.296875 -0.597656 0.203125 -0.765625 L 0.84375 -1.453125 L 0.921875 -1.453125 C 1.078125 -1.242188 1.257812 -1.085938 1.46875 -0.984375 C 1.675781 -0.890625 1.898438 -0.84375 2.140625 -0.84375 C 2.359375 -0.84375 2.523438 -0.878906 2.640625 -0.953125 C 2.753906 -1.035156 2.8125 -1.148438 2.8125 -1.296875 C 2.8125 -1.410156 2.769531 -1.503906 2.6875 -1.578125 C 2.601562 -1.660156 2.472656 -1.726562 2.296875 -1.78125 L 1.6875 -1.921875 C 1.238281 -2.023438 0.910156 -2.1875 0.703125 -2.40625 C 0.492188 -2.632812 0.390625 -2.914062 0.390625 -3.25 C 0.390625 -3.539062 0.460938 -3.789062 0.609375 -4 C 0.753906 -4.207031 0.957031 -4.363281 1.21875 -4.46875 C 1.476562 -4.582031 1.785156 -4.640625 2.140625 -4.640625 C 2.546875 -4.640625 2.882812 -4.578125 3.15625 -4.453125 C 3.425781 -4.335938 3.632812 -4.179688 3.78125 -3.984375 L 3.171875 -3.328125 L 3.09375 -3.328125 C 2.96875 -3.472656 2.828125 -3.578125 2.671875 -3.640625 C 2.515625 -3.703125 2.335938 -3.734375 2.140625 -3.734375 C 1.691406 -3.734375 1.46875 -3.59375 1.46875 -3.3125 C 1.46875 -3.195312 1.507812 -3.101562 1.59375 -3.03125 C 1.675781 -2.957031 1.820312 -2.894531 2.03125 -2.84375 L 2.59375 -2.71875 C 3.050781 -2.625 3.382812 -2.46875 3.59375 -2.25 C 3.8125 -2.03125 3.921875 -1.734375 3.921875 -1.359375 C 3.921875 -1.078125 3.847656 -0.820312 3.703125 -0.59375 C 3.566406 -0.375 3.363281 -0.203125 3.09375 -0.078125 C 2.820312 0.0351562 2.5 0.09375 2.125 0.09375 Z M 2.125 0.09375 "/></g></g></g><g fill="#000000" fill-opacity="1"><g transform="translate(65.690719, 20.882288)"><g><path d="M 2.125 0.09375 C 1.8125 0.09375 1.523438 0.0546875 1.265625 -0.015625 C 1.015625 -0.0859375 0.796875 -0.1875 0.609375 -0.3125 C 0.429688 -0.445312 0.296875 -0.597656 0.203125 -0.765625 L 0.84375 -1.453125 L 0.921875 -1.453125 C 1.078125 -1.242188 1.257812 -1.085938 1.46875 -0.984375 C 1.675781 -0.890625 1.898438 -0.84375 2.140625 -0.84375 C 2.359375 -0.84375 2.523438 -0.878906 2.640625 -0.953125 C 2.753906 -1.035156 2.8125 -1.148438 2.8125 -1.296875 C 2.8125 -1.410156 2.769531 -1.503906 2.6875 -1.578125 C 2.601562 -1.660156 2.472656 -1.726562 2.296875 -1.78125 L 1.6875 -1.921875 C 1.238281 -2.023438 0.910156 -2.1875 0.703125 -2.40625 C 0.492188 -2.632812 0.390625 -2.914062 0.390625 -3.25 C 0.390625 -3.539062 0.460938 -3.789062 0.609375 -4 C 0.753906 -4.207031 0.957031 -4.363281 1.21875 -4.46875 C 1.476562 -4.582031 1.785156 -4.640625 2.140625 -4.640625 C 2.546875 -4.640625 2.882812 -4.578125 3.15625 -4.453125 C 3.425781 -4.335938 3.632812 -4.179688 3.78125 -3.984375 L 3.171875 -3.328125 L 3.09375 -3.328125 C 2.96875 -3.472656 2.828125 -3.578125 2.671875 -3.640625 C 2.515625 -3.703125 2.335938 -3.734375 2.140625 -3.734375 C 1.691406 -3.734375 1.46875 -3.59375 1.46875 -3.3125 C 1.46875 -3.195312 1.507812 -3.101562 1.59375 -3.03125 C 1.675781 -2.957031 1.820312 -2.894531 2.03125 -2.84375 L 2.59375 -2.71875 C 3.050781 -2.625 3.382812 -2.46875 3.59375 -2.25 C 3.8125 -2.03125 3.921875 -1.734375 3.921875 -1.359375 C 3.921875 -1.078125 3.847656 -0.820312 3.703125 -0.59375 C 3.566406 -0.375 3.363281 -0.203125 3.09375 -0.078125 C 2.820312 0.0351562 2.5 0.09375 2.125 0.09375 Z M 2.125 0.09375 "/></g></g></g></svg>